<?xml version="1.0" encoding="UTF-8" standalone="no"?>
<svg
   xmlns:dc="http://purl.org/dc/elements/1.1/"
   xmlns:cc="http://creativecommons.org/ns#"
   xmlns:rdf="http://www.w3.org/1999/02/22-rdf-syntax-ns#"
   xmlns:svg="http://www.w3.org/2000/svg"
   xmlns="http://www.w3.org/2000/svg"
   version="1.1"
   id="svg2"
   viewBox="0 0 1385.0389 1384.697"
   height="390.79227mm"
   width="390.88876mm">
  <defs
     id="defs4" />
  <metadata
     id="metadata7">
    <rdf:RDF>
      <cc:Work
         rdf:about="">
        <dc:format>image/svg+xml</dc:format>
        <dc:type
           rdf:resource="http://purl.org/dc/dcmitype/StillImage" />
        <dc:title></dc:title>
      </cc:Work>
    </rdf:RDF>
  </metadata>
  <g
     transform="translate(-10.338264,-181.92626)"
     id="layer1">
    <path
       id="path3347"
       d="m 681,1565.3156 c -19.55039,-3.662 -37.49758,-9.9357 -58.57279,-20.4749 -20.74999,-10.3765 -30.50399,-16.2535 -71.47402,-43.0644 -40.41099,-26.4451 -53.28397,-34.2452 -71.46269,-43.301 -26.87573,-13.3882 -48.04134,-19.6079 -110.9905,-32.6157 -59.32265,-12.2584 -87.15273,-20.2367 -111.93405,-32.0892 -18.4687,-8.8333 -30.70032,-17.3409 -43.58303,-30.3139 -12.21214,-12.2977 -19.55532,-22.6547 -27.81502,-39.231 -13.64093,-27.3757 -20.43204,-50.6099 -34.1579,-116.8633 -10.68795,-51.5896 -15.70992,-70.9214 -23.50978,-90.4994 -8.93144,-22.4184 -17.88191,-38.0601 -49.49706,-86.5006 C 51.5963,989.90186 42.36474,974.76588 33.47989,957.36221 9.05797,909.52449 4.28189,870.78865 17.6569,829.03161 c 9.15349,-28.5774 22.48758,-53.2425 57.62508,-106.59359 31.51995,-47.8584 42.8618,-67.47991 51.60876,-89.28371 8.53009,-21.26317 13.03967,-38.53904 24.6134,-94.2921 11.33099,-54.58371 18.21174,-79.75225 28.13133,-102.89933 25.20804,-58.82225 65.16413,-86.16418 154.86453,-105.9737 10.175,-2.24706 30.65,-6.59577 45.5,-9.6638 77.10226,-15.92945 94.65942,-23.33779 165,-69.62266 67.02521,-44.10332 92.9241,-57.5158 126.5,-65.51162 14.39831,-3.42884 38.34889,-4.30383 52.58806,-1.92122 35.64078,5.9637 64.94817,20.31136 133.91194,65.55764 38.8495,25.48868 52.6759,33.79429 71,42.65015 25.6679,12.40503 47.1232,18.66635 104,30.35035 79.6788,16.36813 109.7014,26.29333 139.5422,46.13139 11.319,7.52485 28.286,24.16211 35.6569,34.964 19.8787,29.13178 30.7058,61.27982 46.2878,137.4388 18.4192,90.02607 23.9627,103.27769 76.553,183 40.8248,61.88688 56.757,94.62478 62.5705,128.57161 1.773,10.35325 2.033,14.84942 1.5573,26.92839 -0.9843,24.99614 -6.7213,45.21768 -21.1361,74.5 -10.1127,20.54312 -17.5989,32.99776 -45.6818,75.99999 -50.5755,77.4445 -55.5553,89.4231 -73.3751,176.5 -16.0977,78.6619 -26.1033,108.7329 -46.2055,138.8669 -6.9958,10.4871 -24.024,27.7548 -34.3304,34.8133 -29.3351,20.0908 -60.2565,30.4224 -141.4388,47.2583 -54.3985,11.2813 -76.0017,17.2959 -97.865,27.2468 -20.2187,9.2023 -31.6118,15.9738 -79.635,47.3306 -41.25654,26.9386 -52.50671,33.6742 -73.5,44.0059 -18.61603,9.1616 -32.38325,14.3092 -48.5,18.1341 -13.59197,3.2257 -40.04047,4.1313 -52.5,1.7975 z m 49.5,-14.8488 c 14.9093,-3.4561 26.16319,-7.6293 44.5,-16.5018 19.77529,-9.5686 32.7286,-17.3375 76,-45.582 40.6295,-26.52 50.6958,-32.6227 68.4821,-41.5175 29.3918,-14.6986 50.2638,-20.8486 117.0179,-34.4797 68.8997,-14.0691 101.7381,-24.9673 128.5,-42.6457 16.5455,-10.9296 33.1791,-30.3935 43.4797,-50.8779 12.6892,-25.2345 20.1035,-51.0461 33.9874,-118.32 18.0958,-87.6828 23.7595,-101.0638 77.1911,-182.3683 23.9509,-36.44511 32.4358,-50.62435 42.3736,-70.81169 14.6037,-29.66544 19.903,-49.30434 19.833,-73.5 -0.069,-23.751 -5.0046,-42.08004 -19.2542,-71.5 -9.5811,-19.7813 -17.355,-32.74171 -45.5857,-76 -51.3082,-78.61999 -56.8429,-91.93344 -75.0383,-180.5 -13.2977,-64.72708 -20.7679,-90.58042 -33.5983,-116.28021 -9.7453,-19.52001 -24.4503,-37.1447 -40.586,-48.64423 -18.7011,-13.3278 -47.8452,-25.28702 -82.8023,-33.97769 -8.8,-2.18777 -32.425,-7.39553 -52.5,-11.5728 C 971.058,322.60224 949.609,316.35232 923,303.48065 904.6961,294.62645 890.517,286.13452 853.5,261.85691 799.87066,226.68406 781.51569,216.12485 757.84831,206.83057 717.07387,190.81829 687.28396,191.01228 646,207.55892 c -21.122,8.46572 -42.26698,20.62968 -88,50.6233 -80.12927,52.55211 -95.66093,59.09479 -182,76.66711 -13.75,2.7985 -31.975,6.66414 -40.5,8.59033 -94.09919,21.26125 -128.39468,48.41375 -152.01856,120.35648 -5.19663,15.82549 -11.42984,41.60524 -19.47985,80.56607 -10.89075,52.70956 -16.42903,73.6327 -25.14619,95 -9.0016,22.06451 -18.21927,38.03838 -50.20308,87 -26.50182,40.56965 -36.34692,56.91963 -45.1611,75 -30.54276,62.65184 -26.57332,104.45463 16.75613,176.46152 4.1497,6.89617 16.40138,26.03847 27.22596,42.53847 53.00649,80.7983 57.94257,92.8798 78.03563,191 17.01703,83.099 31.09367,117.927 58.26663,144.1613 26.09308,25.1918 60.35255,39.1096 133.72443,54.3252 107.888,22.3733 117.74943,26.2984 197.5,78.61 33.42439,21.9244 42.90615,27.8778 57.63518,36.1878 46.27004,26.1052 82.44673,34.0303 117.86482,25.8203 z m -32.00652,-35.1125 c -1.12456,-1.355 -1.03403,-1.8836 0.58882,-3.4381 1.53203,-1.4676 2.8227,-1.708 6.4177,-1.1955 3.96226,0.5648 4.5,0.9402 4.5,3.1415 0,2.3003 -0.40652,2.5237 -5.08882,2.7967 -3.71829,0.2167 -5.44672,-0.1346 -6.4177,-1.3046 z M 669.5,1511.4654 c -2.67769,-0.9805 -3.5,-1.848 -3.5,-3.6924 0,-2.2074 0.3658,-2.3941 4.33454,-2.2131 5.0689,0.2312 7.38069,1.7964 6.96372,4.7148 -0.36215,2.5347 -3.02002,2.9405 -7.79826,1.1907 z m 62.41275,0.03 c -1.11903,-2.9161 0.38169,-4.4798 4.958,-5.1661 5.08691,-0.7628 6.62925,-0.1735 6.62925,2.5329 0,2.4068 -0.82695,2.8775 -6.39733,3.641 -3.68083,0.5045 -4.68439,0.3096 -5.18992,-1.0078 z m 31.53642,-10.1944 c -1.83222,-2.2077 -0.19387,-4.5722 4.37219,-6.3101 4.25862,-1.6208 6.67864,-0.9634 6.67864,1.8142 0,3.4645 -8.90132,7.0858 -11.05083,4.4959 z M 638.75,1499.8879 c -3.02017,-1.37 -4.25,-2.5299 -4.25,-4.0082 0,-3.8508 5.48251,-3.9011 10.12355,-0.093 1.90022,1.5592 2.16174,2.3013 1.30501,3.7031 -1.53406,2.5101 -2.41456,2.5589 -7.17856,0.3979 z m 154.95,-13.2257 c -2.39572,-2.3957 -1.28741,-4.7835 3.24161,-6.9839 3.69029,-1.7929 4.70523,-1.9391 6,-0.8646 2.31733,1.9233 1.96704,2.7399 -2.59165,6.0422 -4.68144,3.3912 -4.98308,3.4732 -6.64996,1.8063 z m -185.50815,-3.3489 c -3.95126,-2.7 -4.26749,-4.0559 -1.37128,-5.8797 2.66741,-1.6796 9.17943,2.1729 9.17943,5.4305 0,3.4914 -3.09561,3.6695 -7.80815,0.4492 z m 212.97482,-14.1178 c -1.81033,-1.8103 -0.32055,-4.4518 3.90853,-6.9302 4.14698,-2.4303 4.72134,-2.5351 6.13674,-1.1197 2.05747,2.0574 1.09963,4.2513 -2.92836,6.7071 -3.35538,2.0458 -5.92847,2.5313 -7.11691,1.3428 z m -239.64116,-2.5605 c -4.3631,-2.9709 -5.856,-5.3423 -4.32625,-6.8721 1.56309,-1.5631 5.58566,-0.4256 9.00328,2.5458 2.26141,1.9662 2.59215,2.7679 1.72602,4.1834 -1.60202,2.6182 -2.73075,2.6434 -6.40305,0.1429 z m 267.64119,-15.4395 c -1.7067,-1.7067 -0.3304,-4.5274 3.4199,-7.0093 3.1502,-2.0847 4.4679,-2.4644 5.75,-1.657 2.9217,1.8397 2.3653,3.9336 -1.7728,6.6721 -4.0304,2.6672 -6.1522,3.2392 -7.3971,1.9942 z m -296.97485,-3.8822 c -3.95658,-2.7037 -4.26958,-4.0617 -1.35518,-5.8797 2.56449,-1.5997 9.16333,2.4152 9.16333,5.5752 0,3.3409 -3.18295,3.4651 -7.80815,0.3045 z M 877.7,1432.6622 c -2.0461,-2.0461 -1.349,-3.673 2.7303,-6.3726 4.5072,-2.9827 7.4308,-2.8786 7.8824,0.2807 0.2338,1.6358 -0.7071,2.8314 -3.7301,4.7398 -4.5925,2.8991 -5.2136,3.0211 -6.8826,1.3521 z m -354.12354,-3.5883 c -6.15423,-5.1499 -1.86598,-8.3801 5.41892,-4.0819 2.62125,1.5466 3.52686,2.7103 3.30716,4.25 -0.47168,3.3056 -4.6717,3.2247 -8.72608,-0.1681 z m 382.59024,-12.8784 c -1.8851,-1.885 -0.3869,-4.4952 3.7272,-6.494 4.8758,-2.3689 7.6061,-1.9582 7.6061,1.144 0,3.4488 -8.9905,7.6929 -11.3333,5.35 z M 495.25,1413.8141 c -2.42394,-1.2926 -3.75,-2.7096 -3.75,-4.0072 0,-3.0769 2.7553,-3.4621 7.67311,-1.0729 3.55969,1.7295 4.39683,2.6179 4.14388,4.3977 -0.41895,2.948 -3.35291,3.1961 -8.06699,0.6824 z m 159.54689,-2.8636 c -3.96171,-0.3236 -7.65538,-1.042 -8.20816,-1.5965 -0.67346,-0.6755 -0.52832,-6.6143 0.43991,-18 0.79472,-9.3455 1.4509,-17.3592 1.45816,-17.8082 0.007,-0.4491 1.2507,-0.6741 2.7632,-0.5 l 2.75,0.3164 -0.48983,9 c -0.26941,4.95 -0.49441,12.15 -0.5,16 l -0.0102,7 6.30267,0.6027 c 3.46646,0.3314 6.78872,1.0887 7.38278,1.6827 1.66891,1.669 0.14753,4.2338 -2.40407,4.0529 -1.25476,-0.089 -5.52278,-0.4264 -9.48449,-0.75 z m -18.97652,-2.1345 c -1.53697,-0.5904 -2.43067,-2.1076 -3.03106,-5.1455 -0.99319,-5.0256 -3.18438,-6.4522 -10.70584,-6.9699 -4.8863,-0.3363 -4.93279,-0.3107 -7.56027,4.1616 -2.66702,4.5396 -6.51667,6.4836 -7.54301,3.809 -0.28097,-0.7322 3.43354,-8.7513 8.25447,-17.8202 8.37554,-15.7555 8.9099,-16.5027 12.01598,-16.8022 2.63413,-0.254 3.41381,0.1253 4.11092,2 2.11696,5.6928 8.31907,36.0277 7.51941,36.7779 -0.48453,0.4546 -1.8618,0.4498 -3.0606,-0.011 z m -5.82859,-19.2038 c -0.30048,-1.2375 -0.88401,-4.275 -1.29673,-6.75 -0.41272,-2.475 -1.18795,-4.5 -1.72273,-4.5 -1.47576,0 -6.72921,10.3882 -6.09252,12.0474 0.37441,0.9757 2.05147,1.4526 5.10787,1.4526 4.21418,0 4.51006,-0.1663 4.00411,-2.25 z m 125.91276,18.4091 c -4.99569,-2.3456 -8.2272,-7.2748 -9.32592,-14.2253 -2.30438,-14.5774 5.86812,-23.4449 20.95528,-22.7371 5.69832,0.2673 6.4661,0.5408 6.4661,2.3033 0,1.7726 -0.83333,2.0569 -7.32899,2.5 -6.91922,0.472 -7.52027,0.7088 -10.75,4.2353 -2.98918,3.2638 -3.42081,4.3999 -3.41946,9 0.003,9.9366 6.14263,16.6071 13.99845,15.2087 4.73214,-0.8423 6,-2.0983 6,-5.944 0,-4.0078 -1.95805,-5.7996 -5.39503,-4.937 -3.36407,0.8443 -4.85456,-2.1761 -2.07632,-4.2076 2.02703,-1.4822 11.03605,-1.8687 11.87608,-0.5096 0.28752,0.4653 0.82845,4.5113 1.20206,8.9913 l 0.6793,8.1454 -3.64915,1.5247 c -6.17866,2.5816 -14.52042,2.8644 -19.2324,0.6519 z m 32.67247,-4.307 c -0.53523,-1.2936 -2.10518,-9.3007 -3.48877,-17.7934 -2.54112,-15.5979 -2.40824,-18.0587 0.97519,-18.0587 2.06677,0 2.41161,1.1231 4.9659,16.1728 1.32178,7.7879 2.77277,14.5293 3.22442,14.981 0.45165,0.4516 3.65793,0.3215 7.12506,-0.2893 5.34368,-0.9412 6.53647,-0.8778 7.83086,0.4166 2.40824,2.4082 0.90998,3.347 -7.43104,4.656 -4.27825,0.6715 -8.77984,1.4562 -10.00354,1.744 -1.66805,0.3922 -2.46849,-0.066 -3.19808,-1.829 z m -188.65859,0.179 c -1.41026,-0.5705 -2.98441,-3.3175 -4.88105,-8.5177 -2.03332,-5.575 -3.45522,-7.9745 -5.19555,-8.7674 -3.17021,-1.4445 -3.95546,-0.4915 -5.55736,6.7443 -1.33814,6.0445 -3.56067,8.1335 -6.02809,5.6661 -1.3675,-1.3675 5.20475,-35.2043 6.96939,-35.8814 2.55874,-0.9819 16.05557,2.793 18.67894,5.2243 4.81972,4.4667 2.68118,15.0691 -3.43079,17.009 -2.66721,0.8465 -2.4914,2.9617 0.93727,11.2763 3.37184,8.1768 3.17453,9.1347 -1.49276,7.2465 z m -1.24716,-23.6861 c 2.36629,-2.1415 2.34234,-6.5702 -0.0472,-8.7328 -2.25728,-2.0428 -8.61193,-3.2498 -9.50466,-1.8053 -0.34919,0.565 -0.92365,3.1339 -1.27658,5.7088 -0.47553,3.4694 -0.27933,4.911 0.75777,5.5676 2.30392,1.4587 8.11364,1.0328 10.0707,-0.7383 z m 338.19034,22.155 c -1.0186,-2.6546 0.3534,-4.1603 4.9684,-5.4524 5.0207,-1.4057 6.67,-0.8957 6.67,2.0624 0,3.5657 -10.4077,6.5972 -11.6384,3.39 z M 463.5,1401.5971 c -2.8941,-1.4875 -3.89783,-5.4531 -1.60313,-6.3337 0.84544,-0.3244 3.4645,0.053 5.82014,0.8378 3.46863,1.1562 4.28299,1.8872 4.28299,3.8443 0,1.9608 -0.56597,2.4657 -3,2.6767 -1.65,0.143 -4.125,-0.3183 -5.5,-1.0251 z m 241,-1.4289 c -6.61082,-2.3626 -4.52369,-14.306 2.5,-14.306 6.05591,0 8.62472,7.9662 4.04545,12.5455 -2.44435,2.4443 -3.69267,2.7801 -6.54545,1.7605 z m 115.89327,-2.8029 c -1.4337,-0.7793 -3.32693,-2.516 -4.20716,-3.8594 -1.73609,-2.6496 -7.82651,-27.6075 -7.04541,-28.8714 0.26253,-0.4247 1.5672,-0.7723 2.89926,-0.7723 1.69013,0 2.57984,0.6799 2.94454,2.25 0.28743,1.2375 1.61999,6.975 2.96124,12.75 2.88379,12.4167 5.36895,15.6163 11.37254,14.6421 4.27971,-0.6945 8.18172,-4.2011 8.18172,-7.3526 0,-1.299 -1.17516,-7.5153 -2.61146,-13.814 -2.80387,-12.296 -2.6679,-14.803 0.77533,-14.2956 1.90273,0.2803 2.51986,1.8117 4.96474,12.3201 3.36054,14.444 3.46284,17.0176 0.84699,21.3081 -3.68075,6.0372 -14.88456,9.0637 -21.08233,5.695 z m -386.75388,-3.5073 c -1.84833,-0.4336 -4.08226,-1.5101 -4.96428,-2.3921 -1.47157,-1.4716 -1.47137,-1.736 0.002,-3.2099 1.21531,-1.2153 2.59188,-1.4396 5.65672,-0.9218 4.80653,0.8121 7.02711,2.9388 5.53626,5.3023 -1.28339,2.0346 -2.09089,2.1929 -6.23118,1.2215 z M 551,1393.3602 c -2.2,-0.7778 -5.2375,-2.7902 -6.75,-4.4719 -3.40679,-3.7879 -3.63193,-9.184 -0.81201,-19.4623 1.0659,-3.8851 2.43324,-8.9763 3.03855,-11.3138 0.91028,-3.5152 1.51589,-4.25 3.50299,-4.25 1.32134,0 2.63709,0.3797 2.92389,0.8437 0.28681,0.4641 -0.80899,5.7516 -2.43509,11.75 -3.68383,13.5891 -3.77832,17.2967 -0.51884,20.3588 3.35659,3.1534 10.06244,3.3685 12.46628,0.3999 0.94373,-1.1655 2.99208,-7.0091 4.55188,-12.9857 1.55979,-5.9767 3.23351,-11.6542 3.71936,-12.6167 1.01682,-2.0144 4.64637,-2.3536 5.35084,-0.5 0.6817,1.7937 -5.86873,25.0799 -7.94743,28.2523 -1.88453,2.8762 -7.13294,5.5245 -10.8083,5.4538 -1.25517,-0.024 -4.08212,-0.6803 -6.28212,-1.4581 z m 417.9127,0.1352 c -1.0687,-2.7852 0.2472,-4.3036 4.7119,-5.4369 4.7382,-1.2026 6.8754,-0.3114 6.8754,2.8671 0,2.3403 -0.8537,2.8177 -6.3973,3.5776 -3.6809,0.5045 -4.6844,0.3096 -5.19,-1.0078 z m -107.3046,-6.8832 c -0.4633,-1.2375 -2.3262,-7.425 -4.1398,-13.75 -1.8136,-6.325 -3.838,-12.0986 -4.4988,-12.8303 -0.9821,-1.0874 -1.9622,-1.1024 -5.3676,-0.082 -3.03146,0.9083 -4.46586,0.9484 -5.26678,0.1475 -2.34623,-2.3462 0.39792,-4.0256 12.31488,-7.5366 10.4614,-3.0821 12.5503,-3.4268 13.7139,-2.2632 1.9131,1.9131 0.7313,3.3061 -4.01,4.7266 -2.2341,0.6694 -4.2502,1.7073 -4.4801,2.3065 -0.23,0.5992 1.4201,7.3157 3.6669,14.9256 2.2467,7.6099 3.8458,14.4594 3.5535,15.2211 -0.8531,2.2233 -4.548,1.6406 -5.4861,-0.8651 z m -460.69539,0.3017 c -4.27265,-1.0138 -5.41271,-1.8672 -5.41271,-4.0517 0,-2.697 1.39522,-3.2132 6.58247,-2.4354 4.79581,0.7192 6.45945,2.5601 4.75523,5.2618 -1.23521,1.9582 -2.09065,2.1351 -5.92499,1.2253 z m 600.57149,-0.5708 c -1.2522,-1.5088 -1.1452,-1.9321 0.909,-3.5955 2.9412,-2.3817 9.9028,-2.5806 10.7749,-0.3079 0.8752,2.2807 -1.5679,4.2347 -6.2164,4.9717 -3.1461,0.4989 -4.3645,0.2608 -5.4675,-1.0683 z m -483.81163,-3.773 c -0.88233,-1.0631 -0.11901,-4.4324 3.34196,-14.7512 2.46701,-7.3554 4.48547,-14.1616 4.48547,-15.1249 0,-1.1844 -1.32879,-2.1496 -4.10409,-2.9811 -4.35932,-1.3061 -5.89166,-3.2549 -4.02614,-5.1205 0.84711,-0.8471 4.19719,-0.1385 13.19629,2.7913 12.66652,4.1238 14.39058,5.1216 12.93063,7.4839 -0.75167,1.2162 -1.61678,1.2436 -5.60362,0.1772 -2.5931,-0.6935 -5.08407,-0.8916 -5.53551,-0.4402 -0.45143,0.4515 -2.96656,7.1059 -5.58917,14.7876 -4.77123,13.9752 -6.43439,16.3848 -9.09582,13.1779 z m 367.03473,-1.0216 c -0.5125,-0.6525 -3.4748,-8.3642 -6.583,-17.1372 -4.502,-12.7071 -5.3942,-16.1866 -4.3877,-17.1101 0.6949,-0.6376 4.965,-2.4482 9.4892,-4.0234 6.228,-2.1685 8.5067,-2.5831 9.3827,-1.7071 2.0068,2.0068 0.3301,3.7289 -5.5891,5.7406 -3.1542,1.0719 -5.9525,2.5159 -6.2183,3.2087 -0.2659,0.6928 0.043,2.8533 0.6853,4.801 1.3378,4.0537 2.4735,4.2853 9.4145,1.9203 3.3332,-1.1358 5.0726,-1.3056 5.8109,-0.5673 1.8991,1.8991 0.019,3.9507 -5.2118,5.6882 -5.9055,1.9615 -6.6228,3.0829 -5.04,7.8788 1.7891,5.421 2.7981,5.7597 9.843,3.3038 5.2722,-1.838 6.399,-1.9601 7.1363,-0.7733 1.5643,2.5177 0.1615,3.5911 -8.8906,6.8025 -6.6863,2.372 -9.1421,2.8648 -9.8414,1.9745 z m -517.04995,-1.6813 c -4.10291,-0.97 -5.6146,-2.3711 -4.81281,-4.4605 0.9122,-2.3771 2.9849,-2.8022 7.60214,-1.5589 4.52617,1.2188 5.97473,3.1992 4.04275,5.5271 -1.34873,1.6252 -1.87887,1.6634 -6.83208,0.4923 z m 666.25345,-0.3769 c -1.1271,-2.9372 0.392,-4.476 5.1186,-5.1848 3.6275,-0.544 5.0023,-0.3401 6.2725,0.93 1.4958,1.4959 1.4971,1.7563 0.015,3.2379 -0.8862,0.8862 -3.6747,1.8438 -6.1966,2.1281 -3.6326,0.4094 -4.7151,0.1785 -5.21,-1.1112 z M 500.25,1376.7821 c -1.28426,-0.748 -1.75,-2.3041 -1.75,-5.8471 0,-5.5122 -0.53614,-6.1308 -7.79179,-8.9907 l -5.2868,-2.0839 -3.8028,4.1184 c -2.99792,3.2467 -4.25953,3.9734 -5.96071,3.4335 -1.18684,-0.3767 -2.1579,-1.2422 -2.1579,-1.9235 0,-0.6812 5.63885,-7.5134 12.53079,-15.1826 9.81327,-10.92 13.01121,-13.8829 14.7461,-13.6622 4.73761,0.6027 4.92045,1.5752 4.15059,22.077 -0.73444,19.5588 -0.91422,20.253 -4.67748,18.0611 z m -1.29044,-19.1699 c 0.21824,-0.6875 0.57864,-3.8375 0.80089,-7 0.28526,-4.059 0.0477,-5.75 -0.80772,-5.75 -1.374,0 -8.45273,8.2793 -8.45273,9.8864 0,1.1559 4.75154,4.0101 6.78138,4.0736 0.70477,0.022 1.45995,-0.5225 1.67818,-1.21 z m 567.76954,15.0791 c -2.1221,-2.1221 -1.3551,-3.8785 2.374,-5.4366 4.9643,-2.0743 8.8094,-1.5086 9.2162,1.3559 0.2273,1.6002 -0.3492,2.5004 -2,3.1226 -4.866,1.8341 -8.3647,2.1836 -9.5902,0.9581 z M 334.5,1371.5744 c -2.74341,-0.9502 -3.5,-1.7526 -3.5,-3.7122 0,-3.1501 2.85365,-3.7147 7.97001,-1.577 2.91548,1.2182 3.60798,2.0044 3.35227,3.8062 -0.38524,2.7145 -2.89361,3.19 -7.82228,1.483 z m 578.186,-0.022 c -0.84,-1.0416 -10.5821,-23.3419 -13.1657,-30.1371 -1.1272,-2.9647 0.8782,-5.5538 4.3011,-5.553 1.1982,3e-4 7.9354,4.1059 14.9716,9.1237 7.0361,5.0177 13.0585,8.8576 13.3831,8.533 0.3245,-0.3245 -1.1114,-4.5427 -3.1909,-9.3736 -7.0528,-16.3841 -6.6483,-14.9777 -4.8308,-16.7952 1.3487,-1.3486 1.8505,-1.4023 2.8962,-0.3098 1.9348,2.0213 14.2848,32.0868 13.7513,33.4769 -0.2579,0.6723 -1.7948,1.5135 -3.4153,1.8694 -3.0886,0.6784 -2.172,1.2086 -22.8521,-13.2208 -3.556,-2.4812 -6.5961,-4.1193 -6.7558,-3.6402 -0.1597,0.4792 1.8979,6.0383 4.5724,12.3536 2.6746,6.3154 4.6674,12.0102 4.4286,12.6552 -0.6574,1.775 -3.011,2.3602 -4.0937,1.0179 z m 185.8246,-9.1779 c -1.9172,-2.31 -0.5718,-4.133 4.4722,-6.0593 4.2536,-1.6245 4.7616,-1.6376 6.2381,-0.1611 2.043,2.0431 0.5148,4.1645 -4.5134,6.2655 -4.2933,1.7938 -4.6731,1.791 -6.1969,-0.045 z m -794.51099,-0.8986 c -1.65021,-0.7192 -3.63655,-2.0742 -4.41409,-3.0111 -1.22575,-1.4769 -1.2,-1.9171 0.19363,-3.3107 1.47646,-1.4765 1.98442,-1.4634 6.23806,0.1611 5.04396,1.9263 6.38942,3.7493 4.47222,6.0593 -1.48846,1.7935 -2.56847,1.8104 -6.48982,0.1014 z m 158.49168,-0.4201 c -1.96447,-1.5907 -2.42533,-3.587 -3.86689,-16.75 -1.15547,-10.5506 -2.00979,-14.944 -2.90598,-14.944 -0.69816,0 -3.42677,4.6214 -6.06359,10.2697 -5.72695,12.2677 -6.53812,13.2756 -8.83562,10.9781 -1.55534,-1.5554 -1.16281,-2.7198 5.88462,-17.4572 7.20281,-15.0622 7.6795,-15.7809 10.33385,-15.5804 1.53049,0.1156 3.18824,0.6157 3.68388,1.1114 0.49564,0.4956 1.66581,7.826 2.60038,16.2898 1.21638,11.0159 2.06558,15.3886 2.98853,15.3886 0.70912,0 3.61063,-5.0815 6.44779,-11.2922 4.31916,-9.455 5.489,-11.2447 7.18989,-11 1.11728,0.1607 2.16305,0.9838 2.32393,1.8292 0.45488,2.3901 -14.51383,32.963 -16.13894,32.963 -0.77636,0 -2.4152,-0.8127 -3.64185,-1.806 z m 501.36601,-11.9946 c -0.6034,-0.3847 -4.7868,-7.6676 -9.2964,-16.1842 l -8.1992,-15.4848 2.3191,-1.8783 c 1.2756,-1.033 5.3145,-3.3868 8.9755,-5.2305 5.6449,-2.843 6.8355,-3.1364 7.8361,-1.9308 1.6199,1.9519 0.8208,2.8972 -5.5135,6.5213 -3.0134,1.7241 -5.4789,3.5696 -5.4789,4.1011 0,2.4401 4.1909,8.8858 5.7703,8.8748 0.9513,-0.01 3.7202,-1.1499 6.153,-2.5405 4.7646,-2.7235 7.0767,-2.6091 7.0767,0.3502 0,1.2511 -1.6211,2.6197 -4.9495,4.1787 -2.7223,1.275 -5.1921,2.9501 -5.4884,3.7224 -0.2964,0.7723 0.7862,4.0292 2.4057,7.2374 2.7753,5.4978 2.8452,5.9231 1.2155,7.3979 -0.9509,0.8606 -2.2227,1.25 -2.826,0.8653 z m 164.8427,-0.399 c -2.0461,-2.0461 -1.349,-3.673 2.7303,-6.3726 4.5072,-2.9827 7.4308,-2.8786 7.8824,0.2807 0.2338,1.6358 -0.7071,2.8314 -3.7301,4.7398 -4.5925,2.8991 -5.2136,3.0211 -6.8826,1.3521 z m -856.2,-3.6852 c -2.88204,-2.4388 -3.31083,-3.2737 -2.42856,-4.7287 1.66969,-2.7537 2.75258,-2.6584 7.31031,0.6432 4.70615,3.4091 5.17884,6.2881 1.1097,6.759 -1.60614,0.1858 -3.73514,-0.7642 -5.99145,-2.6735 z m 139.05141,-9.6493 c -4.09672,-2.4388 -8.00328,-5.0037 -8.68124,-5.6998 -0.98246,-1.0088 0.49335,-4.2057 7.27125,-15.7508 4.67714,-7.9668 8.96845,-15.0448 9.53624,-15.729 1.19104,-1.4351 4.82234,0.015 4.82234,1.9255 0,0.6275 -3.37669,6.9519 -7.50376,14.0542 -4.12707,7.1023 -7.26756,13.2954 -6.97887,13.7625 0.28869,0.4671 2.98087,2.2545 5.98263,3.9719 6.33488,3.6244 7.11302,4.5564 5.46365,6.5438 -1.60351,1.9321 -1.37751,2.0023 -9.91224,-3.0783 z M 979.25,1320.9596 c -4.8125,-8.1773 -8.75,-15.4894 -8.75,-16.249 0,-2.4596 10.9428,-8.1791 16.5362,-8.643 4.7798,-0.3963 5.28,-0.2125 7.9029,2.9046 2.5755,3.0608 2.7515,3.7926 2.1942,9.1238 l -0.6058,5.7962 7.4863,3.7043 c 7.8188,3.8689 9.2127,5.7943 4.9663,6.8601 -1.8202,0.4568 -4.4773,-0.3961 -9.5694,-3.072 -7.0921,-3.7268 -11.0788,-4.1326 -12.1885,-1.2408 -0.2742,0.7144 1.0068,3.8555 2.8466,6.9803 3.0011,5.097 3.188,5.8385 1.8167,7.2097 -0.8406,0.8406 -2.0587,1.5206 -2.7069,1.511 -0.6482,-0.01 -5.1161,-6.7079 -9.9286,-14.8852 z m 10.3269,-9.0205 c 1.6077,-1.6077 2.9231,-3.572 2.9231,-4.3651 0,-2.0281 -3.865,-6.7118 -5.5387,-6.7118 -2.0646,0 -8.3071,3.1559 -8.8041,4.4509 -0.2368,0.6173 0.6891,3.0183 2.0576,5.3357 2.986,5.0561 5.2801,5.3723 9.3621,1.2903 z m 165.5898,16.2564 c -1.4861,-1.486 -0.4841,-4.1179 2.7674,-7.2694 3.7617,-3.646 6.5659,-3.6033 6.5659,0.1 0,4.1675 -6.9763,9.5264 -9.3333,7.1694 z m -907.56511,-4.7285 c -3.45848,-3.5682 -3.65112,-6.073 -0.55836,-7.2598 2.20449,-0.8459 8.62504,5.4915 8.24567,8.1389 -0.47832,3.338 -3.98905,2.9365 -7.68731,-0.8791 z m 138.13951,-4.1223 c -4.53261,-3.0346 -8.2411,-5.7983 -8.2411,-6.1417 0,-1.1935 19.25453,-30.3408 20.04298,-30.3408 1.91065,0 3.95702,1.3223 3.95702,2.5569 0,0.7386 -3.38944,6.5413 -7.53209,12.8949 -4.14266,6.3535 -7.77948,12.1966 -8.08184,12.9845 -0.34925,0.9101 1.03007,2.5352 3.7821,4.4558 2.3825,1.6628 5.14998,3.6048 6.14993,4.3156 1.92783,1.3703 1.43942,4.7923 -0.68399,4.7923 -0.63355,0 -4.86041,-2.4829 -9.39301,-5.5175 z m 621.7589,-15.636 c -5.225,-7.7396 -9.6352,-14.6429 -9.8005,-15.3407 -0.1652,-0.6977 3.3516,-3.8277 7.8153,-6.9554 6.5568,-4.5945 8.3914,-5.4582 9.5505,-4.4962 2.2438,1.8622 1.8078,2.6071 -4.0653,6.9458 -3.025,2.2347 -5.4978,4.6114 -5.495,5.2815 0,0.6702 1.1015,2.5685 2.4417,4.2185 2.7177,3.3459 1.5151,3.5797 11.5723,-2.25 2.5537,-1.4802 3.1561,-1.5327 3.9075,-0.3407 1.3297,2.1093 0.5018,3.3095 -4.4385,6.435 -2.4684,1.5617 -4.488,3.4793 -4.488,4.2615 0,2.2175 4.3385,8.368 5.9125,8.3818 0.7768,0.01 3.5905,-1.3853 6.2526,-3.0936 4.7321,-3.0365 7.8349,-3.2861 7.8349,-0.6302 0,1.4852 -14.2633,11.7591 -16.2367,11.6955 -0.6948,-0.023 -5.5383,-6.3732 -10.7633,-14.1128 z m -638.37741,4.289 c -1.47474,-1.6296 -1.53265,-2.4431 -0.45954,-6.4553 1.40367,-5.2482 0.78139,-6.3677 -6.24633,-11.2379 l -3.91212,-2.7111 -4.10553,2.7169 c -4.2639,2.8217 -8.89907,2.9064 -8.89907,0.1625 0,-1.2191 31.13434,-22.6106 32.90874,-22.6106 0.40845,0 1.66808,1.0125 2.79919,2.25 l 2.05657,2.25 -3.73734,13 c -2.05553,7.15 -4.49011,15.5875 -5.41018,18.75 -0.92007,3.1625 -2.04053,5.75 -2.48993,5.75 -0.44939,0 -1.5764,-0.839 -2.50446,-1.8645 z m 5.39867,-24.6994 c 1.20137,-3.6101 1.92502,-6.8232 1.60811,-7.1401 -0.77887,-0.7788 -11.62937,6.7625 -11.62937,8.0827 0,1.2909 5.06838,5.5361 6.66847,5.5853 0.64266,0.02 2.15141,-2.9177 3.35279,-6.5279 z m 800.67994,18.9318 c -2.3728,-2.3728 1.8331,-11.3679 5.3155,-11.3679 3.1308,0 3.4125,2.4937 0.8138,7.2046 -2.2485,4.076 -4.6115,5.6811 -6.1293,4.1633 z m -144.1746,-15.3326 c -5.7896,-7.6806 -10.5266,-14.4198 -10.5266,-14.9762 0,-1.773 14.8661,-12.3245 16.4875,-11.7023 2.7601,1.0592 1.5712,3.5606 -3.4875,7.3373 -2.75,2.053 -5,4.3047 -5,5.0036 0,0.6989 1.2793,2.7025 2.8428,4.4524 l 2.8428,3.1816 4.8487,-3.7023 c 2.6668,-2.0362 5.5449,-3.5682 6.3957,-3.4044 3.0714,0.5915 2.074,3.4003 -2.3972,6.7504 -2.493,1.868 -4.5328,4.0723 -4.5328,4.8986 0,2.1973 4.2727,8.1112 5.866,8.1192 0.7513,0 3.5726,-1.613 6.2695,-3.5927 4.8459,-3.5572 7.8645,-3.924 7.8645,-0.9557 0,1.5726 -13.8318,12.5552 -15.8124,12.5552 -0.6239,0 -5.8713,-6.2841 -11.661,-13.9647 z m -800.27917,11.7147 c -0.54861,-0.6875 -1.76919,-2.7684 -2.71242,-4.6243 -1.53066,-3.0117 -1.55242,-3.5369 -0.20252,-4.8868 2.15431,-2.1543 4.25835,-0.9612 6.68153,3.7886 1.65229,3.2387 1.85052,4.4308 0.92274,5.5487 -1.45816,1.757 -3.36948,1.8278 -4.68933,0.1738 z m 957.19797,-28.0317 c -0.7267,-1.8937 1.9592,-8.9402 3.8663,-10.1431 1.2212,-0.7703 2.0504,-0.6417 3.1864,0.4943 1.2726,1.2727 1.3366,2.1258 0.3736,4.983 -0.639,1.8961 -1.6017,4.01 -2.1392,4.6975 -1.2741,1.6294 -4.6575,1.6091 -5.2871,-0.032 z m -970.81455,-2.9071 c -3.41537,-5.2785 -2.88181,-10.8112 1.04262,-10.8112 1.837,0 4.53113,6.4172 4.13301,9.8445 -0.39736,3.4208 -3.24376,3.9524 -5.17563,0.9667 z m 981.35345,-28.3301 c -0.9087,-1.0949 -1.0126,-2.6707 -0.3724,-5.6459 0.969,-4.503 3.1354,-6.5299 5.8615,-5.4838 1.4155,0.5432 1.6161,1.3762 1.0619,4.4092 -0.7271,3.9791 -3.0207,8.2394 -4.4359,8.2394 -0.47,0 -1.4218,-0.6835 -2.1151,-1.5189 z m -991.01559,-3.5396 c -0.60591,-1.1321 -1.18425,-3.9446 -1.28519,-6.25 -0.15828,-3.615 0.11662,-4.2342 1.99882,-4.5022 2.43312,-0.3464 3.68076,1.4406 4.68044,6.7039 1.02686,5.4063 -3.03556,8.4552 -5.39407,4.0483 z m 998.22519,-29.2079 c -1.4058,-1.6939 0.4944,-10.6767 2.4143,-11.4135 2.7854,-1.0689 4.6316,1.7786 3.9435,6.082 -0.9633,6.0239 -3.8053,8.4071 -6.3578,5.3315 z m -1005.87558,-3.3465 c -0.37001,-0.9642 -0.7055,-3.5832 -0.74553,-5.8201 -0.0623,-3.4819 0.25066,-4.1129 2.1756,-4.3863 2.66462,-0.3785 4.52458,3.4158 4.05052,8.263 -0.22464,2.2969 -0.85911,3.1358 -2.55338,3.3764 -1.43358,0.2036 -2.49943,-0.3182 -2.92721,-1.433 z M 563.5,1199.9592 c 0,-0.4966 21.4875,-7.9434 47.75,-16.5485 54.45512,-17.8425 53.24236,-17.4118 53.27275,-18.9198 0.0125,-0.6208 0.12501,-22.9537 0.25,-49.6287 l 0.22725,-48.5 219.25,-0.2522 c 179.1176,-0.2061 219.25,-0.015 219.25,1.0449 0,0.7135 -7.65,15.829 -17,33.5901 -9.35,17.7612 -17,32.5006 -17,32.7543 0,0.2537 7.65,15.0551 17,32.892 9.35,17.8368 17,32.8897 17,33.4508 0,0.691 -87.1128,1.0201 -270,1.0201 -159.99183,0 -270,-0.3679 -270,-0.903 z m 241.75,-47.3576 c 0.6875,-0.5414 1.25,-1.8911 1.25,-2.9995 0,-1.8548 -0.4386,-1.9637 -5.50875,-1.3678 -6.41624,0.7541 -11.52154,-0.9228 -13.81737,-4.5386 -3.59833,-5.667 -2.78021,-16.8671 1.57547,-21.5682 2.62368,-2.8317 7.93438,-3.8514 12.60047,-2.4193 2.95324,0.9064 3.89762,0.8351 5.11881,-0.3861 4.04645,-4.0464 -6.15067,-7.8926 -14.80625,-5.5846 -9.12524,2.4331 -13.53174,8.9587 -13.58961,20.1247 -0.0603,11.6273 4.02488,17.7993 13.16063,19.8838 4.2705,0.9743 12.14208,0.3317 14.0166,-1.1444 z m 109.0892,-0.5143 c 10.5853,-4.8744 12.5468,-26.6738 3.1144,-34.6107 -6.1871,-5.2061 -16.4933,-5.9161 -23.4516,-1.6156 -6.6425,4.1053 -9.8312,17.4135 -6.5527,27.3477 1.296,3.9269 6.8472,9.3604 10.319,10.1001 1.2275,0.2615 3.1317,0.6646 4.2317,0.8956 2.9069,0.6106 8.4996,-0.3489 12.3392,-2.1171 z m -14.5245,-4.6411 c -4.8707,-2.1913 -6.589,-6.4815 -6.1419,-15.3354 0.3501,-6.933 0.6042,-7.6602 3.6177,-10.3527 4.9869,-4.4558 13.3145,-3.7177 16.7215,1.482 2.1604,3.2972 3.0236,12.4692 1.584,16.8311 -2.335,7.0754 -9.2571,10.3102 -15.7813,7.375 z m 58.5245,4.6411 c 10.5853,-4.8744 12.5468,-26.6738 3.1144,-34.6107 -6.1871,-5.2061 -16.4933,-5.9161 -23.4516,-1.6156 -5.4938,3.3953 -7.7732,9.4255 -7.3536,19.4542 0.2742,6.5522 0.8055,9.0096 2.4134,11.1626 5.8897,7.8865 15.636,10.0494 25.2774,5.6095 z m -14.5245,-4.6888 c -4.8593,-2.1134 -6.5897,-6.4204 -6.1419,-15.2877 0.3501,-6.933 0.6042,-7.6602 3.6177,-10.3527 2.2361,-1.9979 4.3013,-2.8959 6.6602,-2.8959 7.8942,0 11.3307,3.4818 12.2526,12.4142 0.8046,7.7957 -1.714,14.2745 -6.2928,16.1876 -4.1217,1.7222 -6.0138,1.7099 -10.0958,-0.065 z m 92.8866,5.2782 c 3.771,-1.4194 5.7987,-4.9777 5.7987,-10.1757 0,-3.7627 -0.4988,-4.8695 -3.3043,-7.3328 -1.8174,-1.5957 -4.8549,-3.5151 -6.75,-4.2655 -4.3752,-1.7322 -7.9457,-4.9046 -7.9457,-7.0598 0,-0.9189 0.875,-2.4626 1.9444,-3.4304 1.6156,-1.462 2.9673,-1.6409 7.9939,-1.0575 5.1455,0.5972 6.1457,0.4518 6.6924,-0.9729 1.2004,-3.1281 -2.1296,-4.9804 -8.9907,-5.001 -7.244,-0.022 -11.1586,1.6495 -13.2253,5.6461 -3.4568,6.6847 -0.3635,12.3249 9.4776,17.2808 4.0546,2.0418 7.22,4.3326 7.5876,5.491 1.637,5.1575 -4.5286,8.2043 -12.3437,6.0999 -4.6843,-1.2614 -6.1362,-0.7968 -6.1362,1.9633 0,2.3648 1.4473,3.2666 6.5,4.0502 4.4668,0.6927 8.6626,0.2845 12.7013,-1.2357 z M 697,1139.1113 c 0,-7.838 0.28429,-14.2505 0.63176,-14.25 0.34747,5e-4 2.51528,5.5134 4.81736,12.2509 4.74285,13.8809 6.28701,16.75 9.01492,16.75 2.53615,0 2.85331,-0.5779 7.65292,-13.9452 2.26433,-6.3064 4.61314,-11.6315 5.21958,-11.8336 0.7559,-0.252 1.19079,3.6647 1.38304,12.4556 l 0.28042,12.8232 3,0 3,0 0,-19.5 0,-19.5 -3.88178,-0.3182 c -2.13498,-0.175 -4.35491,0.1549 -4.93318,0.7332 -0.57826,0.5782 -3.2062,6.9712 -5.83985,14.2065 -2.63366,7.2353 -5.05069,13.4173 -5.3712,13.7378 -0.99082,0.9909 -2.29288,-1.9136 -6.51609,-14.5351 -2.24073,-6.6966 -4.69152,-12.6882 -5.44619,-13.3145 -0.75468,-0.6263 -3.09104,-0.9972 -5.19192,-0.8242 l -3.81979,0.3145 -0.27302,18.3698 c -0.28866,19.4219 0.12856,21.5081 4.18551,20.9285 2.00507,-0.2865 2.08751,-0.8611 2.08751,-14.5492 z m 48.23432,11.7509 c 0.71358,-1.375 1.72914,-3.7375 2.2568,-5.25 0.93232,-2.6724 1.1723,-2.75 8.50888,-2.75 7.33658,0 7.57656,0.078 8.50888,2.75 2.00998,5.7615 3.55653,7.7503 6.27266,8.0664 1.87475,0.2182 2.71846,-0.1424 2.71846,-1.1619 0,-2.5021 -13.05939,-37.0702 -14.3172,-37.8975 -0.65054,-0.4279 -2.51788,-0.6608 -4.14964,-0.5175 -2.88321,0.2532 -3.15778,0.7678 -9.74161,18.2605 -3.72613,9.9 -6.77856,18.8174 -6.78317,19.8164 -0.013,2.8142 5.10186,1.8131 6.72594,-1.3164 z M 751.5,1135.2001 c 0,-3.1194 3.36226,-12.3379 4.5,-12.3379 1.13774,0 4.5,9.2185 4.5,12.3379 0,1.3032 -0.9716,1.6621 -4.5,1.6621 -3.5284,0 -4.5,-0.3589 -4.5,-1.6621 z m 66.97731,14.1615 c 2.44556,-6.4252 2.56127,-6.4994 10.13674,-6.4994 l 6.99601,0 2.43236,5.5 c 1.99514,4.5114 2.8734,5.5 4.88595,5.5 1.34948,0 2.70269,-0.403 3.00714,-0.8957 0.58779,-0.951 -11.98178,-35.733 -13.67983,-37.8543 -0.55031,-0.6875 -2.24037,-1.25 -3.75568,-1.25 -1.51531,0 -3.20537,0.5625 -3.75568,1.25 -1.75997,2.1987 -14.25658,36.9211 -13.64441,37.9117 0.32393,0.5241 1.77376,0.8146 3.22184,0.6456 2.03456,-0.2375 2.9789,-1.2164 4.15556,-4.3079 z m 5.60326,-13.369 c -0.69531,-1.1251 3.34546,-13.1304 4.41943,-13.1304 0.73697,0 5,11.2494 5,13.1942 0,1.0909 -8.74237,1.0317 -9.41943,-0.064 z m 34.41943,9.8696 0.5,-7.5 3.1048,-0.3025 c 2.8953,-0.2821 3.3959,0.1904 7.4166,7 2.3715,4.0164 4.7993,7.6331 5.3952,8.0372 1.4707,0.9973 5.3462,0.9582 5.9756,-0.06 0.2807,-0.4541 -1.6818,-4.2471 -4.3611,-8.4289 l -4.8713,-7.6032 3.4201,-3.5216 c 2.8727,-2.958 3.4201,-4.2472 3.4201,-8.0554 0,-3.595 -0.6037,-5.2099 -2.9158,-7.7995 l -2.9158,-3.2658 -9.8342,0 -9.8342,0 -0.2734,18.4678 c -0.1504,10.1573 -0.04,19.0764 0.2455,19.8202 0.2854,0.7437 1.5335,1.2082 2.7734,1.0321 2.057,-0.2921 2.2983,-0.977 2.7545,-7.8201 z m 0.4088,-15.3771 c -0.2906,-0.7573 -0.389,-3.5698 -0.2186,-6.25 l 0.3098,-4.8729 4.3762,0.2823 c 2.4068,0.1553 5.2193,0.7337 6.25,1.2852 2.4869,1.331 2.5146,7.0426 0.045,9.2775 -2.2798,2.0632 -10.0009,2.2626 -10.7625,0.2779 z M 982,1139.1112 c 0,-8.4534 0.3825,-14.1231 0.9403,-13.9366 0.5171,0.1729 4.805,6.5859 9.5285,14.251 l 8.5883,13.9366 3.9714,0 3.9715,0 0,-19.5 0,-19.5 -2.5,0 -2.5,0 -0.2787,13.8238 c -0.2034,10.0903 -0.598,13.7173 -1.4609,13.4297 -0.6501,-0.2167 -4.4652,-5.7624 -8.4778,-12.3238 -9.5292,-15.5819 -9.5575,-15.6125 -14.0725,-15.2377 l -3.7101,0.308 -0.273,18.3698 c -0.2887,19.4219 0.1285,21.5081 4.1855,20.9285 2.0051,-0.2865 2.0875,-0.8611 2.0875,-14.5493 z m -425.27988,41.001 0.27988,-12.75 38.25,-0.2619 c 24.18415,-0.1656 38.25,0.094 38.25,0.7066 0,1.0683 -71.86259,25.0553 -75.0629,25.0553 -1.90603,0 -1.98412,-0.5799 -1.71698,-12.75 z m 655.22108,-6.5427 c -0.8267,-2.1542 1.004,-8.9548 2.6983,-10.0235 0.8738,-0.5512 2.3642,-0.7045 3.3121,-0.3407 1.4224,0.5458 1.6011,1.4034 1.0229,4.9091 -0.3854,2.3363 -1.1549,4.8103 -1.71,5.4978 -1.3194,1.6339 -4.6903,1.6069 -5.3233,-0.043 z m -1018.47249,-2.7658 c -0.60591,-1.1321 -1.18425,-3.9446 -1.28519,-6.25 -0.15828,-3.615 0.11662,-4.2342 1.99882,-4.5022 2.43312,-0.3464 3.68076,1.4406 4.68044,6.7039 1.02686,5.4063 -3.03556,8.4552 -5.39407,4.0483 z M 296.5,1158.6531 c 0,-0.6679 7.65,-15.7664 17,-33.5521 9.35,-17.7857 17,-32.5477 17,-32.8044 0,-0.2566 -7.65,-15.0379 -17,-32.8473 -9.35,-17.8093 -17,-32.8783 -17,-33.4865 0,-0.8049 49.21809,-1.0372 180.75,-0.8533 l 180.75,0.2527 0,67 0,67 -180.75,0.2527 c -141.25266,0.1975 -180.75,-0.013 -180.75,-0.9618 z m 92.7868,-47.6707 c 2.16308,-1.1634 2.27128,-1.7274 2,-10.4251 l -0.2868,-9.1951 -7,0 c -6.33333,0 -7,0.1905 -7,2 0,1.5238 0.83333,2.119 3.5,2.5 3.46667,0.4952 3.5,0.5476 3.5,5.5 l 0,5 -5.61863,0.296 c -4.81882,0.2538 -6.05329,-0.07 -8.67215,-2.2734 -6.74092,-5.6721 -5.95278,-20.3684 1.3489,-25.1526 1.94238,-1.2727 4.13644,-1.5243 10.0085,-1.1474 6.44252,0.4134 7.65486,0.2321 8.45606,-1.265 1.48979,-2.7837 -1.49453,-4.3624 -9.05403,-4.7895 -8.61121,-0.4866 -12.94904,0.9609 -17.29483,5.7712 -8.69427,9.6235 -6.3581,27.3632 4.3303,32.8822 3.82057,1.9728 5.62242,2.2619 11.99588,1.9251 4.125,-0.2181 8.52906,-0.9499 9.7868,-1.6264 z m 37.24719,-0.3702 c 12.90902,-6.5156 12.84222,-30.5915 -0.10345,-37.2859 -1.621,-0.8383 -5.52403,-1.4571 -9.13088,-1.4476 -11.44157,0.03 -17.43104,5.7672 -18.50501,17.726 -0.66036,7.3532 0.97911,13.3608 4.84903,17.7684 5.0924,5.7999 15.03056,7.2062 22.89031,3.2391 z m -14.83418,-4.7997 c -1.34015,-0.5378 -3.16503,-2.8781 -4.37229,-5.6073 -2.49289,-5.6356 -2.03887,-14.2339 0.96547,-18.2842 4.41222,-5.9483 14.55996,-5.8079 18.25529,0.2526 2.26677,3.7176 2.70861,14.9333 0.75703,19.2165 -2.14807,4.7146 -9.60846,6.8287 -15.6055,4.4224 z m 56.48387,5.1063 c 6.7564,-3.0675 7.75173,-5.9998 7.78666,-22.9398 0.0251,-12.1678 -0.21894,-14.5411 -1.58442,-15.4091 -0.88774,-0.5643 -2.35024,-0.7435 -3.25,-0.3982 -1.40344,0.5385 -1.63592,2.5577 -1.63592,14.2088 0,17.8537 -1.23785,20.4817 -9.64753,20.4817 -4.11924,0 -6.81609,-1.2691 -7.90975,-3.7222 -0.43591,-0.9778 -1.05135,-8.3028 -1.36764,-16.2778 l -0.57508,-14.5 -2.5,0 -2.5,0 -0.27802,14.9752 c -0.18018,9.7048 0.13026,15.961 0.88206,17.776 2.90761,7.0196 13.7598,9.8098 22.57964,5.8054 z m 24.31632,-6.0566 0.5,-7.5 3.14391,-0.3054 c 2.90191,-0.282 3.43371,0.1799 6.90857,6 2.07056,3.4679 4.43804,7.0929 5.26107,8.0554 1.59143,1.8611 5.68571,2.3692 6.64064,0.8241 0.31472,-0.5092 -1.6632,-4.4149 -4.39536,-8.6793 l -4.96758,-7.7534 3.45437,-3.8236 c 3.86829,-4.2817 4.53197,-8.8333 2.00154,-13.7266 -2.05171,-3.9676 -6.71164,-5.5912 -16.04716,-5.5912 l -8,0 -0.27287,18.9692 c -0.15008,10.4331 -0.0396,19.5771 0.24553,20.3201 0.28512,0.7431 1.53291,1.2069 2.77287,1.0308 2.05701,-0.2921 2.29826,-0.977 2.75447,-7.8201 z m 0.45794,-15.249 c -0.31766,-0.8278 -0.43815,-3.6979 -0.26775,-6.3781 0.30925,-4.8642 0.31667,-4.8735 4.13625,-5.1878 5.38174,-0.4429 8.67356,1.916 8.67356,6.2155 0,4.1963 -1.78093,5.7077 -7.48279,6.3504 -3.40303,0.3835 -4.62071,0.1428 -5.05927,-1 z m 34.31952,8.4865 c 0.1526,-7.8306 0.67783,-14.2375 1.16717,-14.2375 0.48935,0 2.7621,5.6185 5.05056,12.4856 4.65556,13.9701 6.54559,17.1123 9.6922,16.1136 1.57508,-0.4999 3.11872,-3.652 6.52421,-13.3224 2.45353,-6.9672 4.97095,-12.8376 5.59426,-13.0454 0.79534,-0.2651 1.21692,3.4142 1.41372,12.3384 0.23331,10.5797 0.56035,12.8923 1.9466,13.7652 1.20775,0.7604 2.10194,0.6874 3.25,-0.2654 1.3388,-1.1111 1.58382,-4.1266 1.58382,-19.492 0,-12.8048 -0.35469,-18.5323 -1.2,-19.3776 -1.57598,-1.576 -7.28692,-1.5425 -8.53386,0.05 -0.53832,0.6875 -2.89781,6.65 -5.24332,13.25 -4.96722,13.9772 -5.92875,16.0206 -6.99105,14.8574 -0.43062,-0.4716 -2.25849,-5.3574 -4.06195,-10.8574 -1.80345,-5.5 -4.10464,-11.9386 -5.11374,-14.308 -1.79367,-4.2116 -1.93012,-4.3011 -6.09541,-4 l -4.26067,0.308 -0.27251,18.8704 c -0.28043,19.4192 0.17732,22.082 3.68055,21.41 1.35123,-0.2592 1.63392,-2.4583 1.86942,-14.5429 z m 68.21197,13.2752 c 2.5336,-3.0528 0.46709,-4.4086 -7.19086,-4.7179 L 581,1106.3622 l 0,-6 0,-6 7,-0.5 c 6.16667,-0.4405 7,-0.7381 7,-2.5 0,-1.7619 -0.83333,-2.0595 -7,-2.5 l -7,-0.5 0,-5 0,-5 7.5,-0.5 c 7.2,-0.48 7.5,-0.6 7.5,-3 l 0,-2.5 -11,0 -11,0 -0.27251,18.8704 c -0.18877,13.072 0.0793,19.2943 0.87245,20.25 1.6859,2.0314 19.1891,1.9412 20.88949,-0.1077 z m 23.01057,-16.0127 0.5,-17 5.5,-0.5 c 5.06667,-0.4606 5.5,-0.697 5.5,-3 l 0,-2.5 -14.5,0 -14.5,0 0,2.5 c 0,2.2667 0.46667,2.5467 5,3 l 5,0.5 0.2763,15.9292 c 0.2888,16.6497 0.85897,18.9087 4.63619,18.3691 2.00022,-0.2858 2.10842,-1.0092 2.58751,-17.2983 z m 601.0682,46.0822 c -0.9071,-1.093 -0.8538,-2.5249 0.2323,-6.25 1.1778,-4.0391 1.8022,-4.8322 3.8043,-4.8322 2.2171,0 2.3829,0.3567 2.2293,4.7962 -0.2334,6.75 -3.315,9.8416 -6.2659,6.286 z m -1033.51151,-2.8322 c -0.2093,-0.6875 -0.86999,-2.7791 -1.4682,-4.648 -1.28422,-4.0122 0.0432,-6.3691 3.32288,-5.9003 1.55899,0.2229 2.309,1.3577 2.96713,4.4893 0.48442,2.305 0.61155,4.8925 0.28252,5.75 -0.71307,1.8582 -4.56177,2.0912 -5.10433,0.309 z m 1043.11001,-28.4167 c -1.2989,-1.2989 -0.6324,-5.8773 1.3223,-9.0833 2.202,-3.6114 3.18,-3.9563 5.0002,-1.763 3.0013,3.6163 -3.0948,14.0741 -6.3225,10.8463 z m -1052.37388,-3.535 c -0.5677,-0.7141 -1.58939,-3.0272 -2.27043,-5.1404 -1.36849,-4.2461 -0.48969,-6.0871 2.61983,-5.4883 2.0671,0.3981 5.64082,7.1122 5.15189,9.6791 -0.39162,2.056 -4.11119,2.698 -5.50129,0.9496 z m 1065.06188,-28.3163 c -1.3431,-3.5002 4.1154,-11.283 7.1081,-10.1347 2.1178,0.8127 1.9187,4.5147 -0.4518,8.4027 -2.1088,3.4585 -5.641,4.3777 -6.6563,1.732 z m -1079.26331,-3.0929 c -1.17416,-1.4928 -2.39243,-3.7404 -2.70726,-4.9947 -1.34849,-5.3729 3.44017,-6.0328 6.60596,-0.9104 3.94066,6.3761 0.53242,11.5383 -3.8987,5.9051 z M 780,1059.8949 c -3.77766,-0.6968 -9.49909,-2.6588 -9.50077,-3.2579 -4.3e-4,-0.1512 4.20795,-0.1211 9.35195,0.067 11.52714,0.4209 17.66765,-1.7839 23.53583,-8.4505 8.86255,-10.0684 10.63474,-24.1929 9.7295,-77.54482 l -0.65585,-38.65383 8.76967,-7.35619 c 4.82332,-4.0459 10.40852,-8.60548 12.41156,-10.1324 2.93813,-2.23973 3.77494,-3.66349 4.33044,-7.36783 0.37871,-2.52539 0.9255,-5.20909 1.2151,-5.96377 1.11673,-2.91014 -2.8592,-1.14997 -10.63152,4.70666 -4.43695,3.34334 -10.51233,8.31353 -13.50085,11.04486 l -5.43366,4.96606 -0.3654,48.20513 c -0.34498,45.51163 -0.48257,48.58953 -2.46237,55.08483 -2.90481,9.5299 -6.61494,14.4532 -13.82242,18.3422 -5.20238,2.807 -6.94613,3.2255 -13.54307,3.25 -12.51828,0.046 -20.32747,-3.8782 -26.99256,-13.5655 -11.0655,-16.0832 -9.82834,-38.79951 3.57944,-65.72444 7.08771,-14.23322 15.15222,-25.37559 27.71077,-38.2867 L 795.5,917.15271 795.4876,901.75746 c -0.0207,-25.68094 -3.58426,-91.1516 -7.61652,-139.9311 l -0.62293,-7.53585 3.66071,-3.21415 c 3.93061,-3.45112 5.77322,-3.94513 7.3261,-1.96415 2.94859,3.76144 5.03857,35.73445 8.31771,127.24585 0.93065,25.97203 1.6386,32.1462 3.47534,30.30945 0.6924,-0.69239 -1.03745,-53.89028 -3.06654,-94.3053 -1.25916,-25.07981 -2.35196,-39.26392 -3.73661,-48.5 -0.12369,-0.825 0.19274,-1.725 0.70317,-2 2.3444,-1.26307 4.13006,14.23572 6.04868,52.5 1.17885,23.5106 3.49658,82.29016 3.51921,89.25 0.002,0.6875 0.7357,1.25 1.62992,1.25 2.23483,0 24.37416,-11.901 24.37416,-13.10232 0,-0.53243 -0.69977,-2.03603 -1.55505,-3.34135 -1.47016,-2.24374 -1.40248,-2.51478 1.23978,-4.96482 3.63012,-3.36603 5.51716,-3.27575 17.86007,0.85446 17.8498,5.97291 32.4965,14.90665 35.7786,21.82307 4.5665,9.62333 -0.5059,30.49665 -12.3317,50.74524 -4.5364,7.76727 -13.8623,18.35032 -18.1031,20.54331 -8.9779,4.64267 -21.0697,-2.42052 -25.80791,-15.07517 -2.82949,-7.55692 -3.35829,-14.69768 -2.09851,-28.33744 0.62762,-6.79525 0.8877,-12.60843 0.57796,-12.91817 -0.99554,-0.99555 -5.29762,1.90577 -12.21586,8.23838 l -6.74759,6.1764 -0.089,46.42921 c -0.0968,50.47159 -0.40812,53.87899 -5.91597,64.74829 -4.97639,9.8204 -17.84752,15.4723 -30.09169,13.2136 z m 8.5,-26.0773 c 4.61784,-2.3231 7.44814,-5.5654 9.12683,-10.4554 1.87483,-5.4613 1.80364,-69.99107 -0.0792,-71.81192 -2.80664,-2.7142 -21.03969,21.53489 -27.0527,35.9788 -6.09986,14.65252 -9.73287,35.21722 -7.09299,40.14982 1.13454,2.1199 9.01583,6.716 14.09808,8.2215 3.02031,0.8947 6.32541,0.2689 11,-2.0828 z m -28.57257,-22.0167 c 2.4214,-21.40235 12.1649,-41.229 30.29078,-61.63748 7.18326,-8.08785 7.28179,-8.2739 7.28179,-13.75 0,-3.89271 -0.38901,-5.55121 -1.30207,-5.55121 -1.55492,0 -15.42115,15.68051 -21.53306,24.35046 -9.76389,13.85042 -16.26405,30.57252 -18.029,46.38083 -0.99325,8.8963 -0.18572,16.2687 1.78197,16.2687 0.4531,0 1.13242,-2.7276 1.50959,-6.0613 z m 98.99977,-47.91102 c 3.8392,-1.45964 11.0906,-8.55342 15.5124,-15.17502 7.1644,-10.72882 10.6773,-23.18983 9.0502,-32.10265 -1.2679,-6.94462 -5.9261,-11.17254 -18.2269,-16.54305 -9.2465,-4.03699 -9.266,-4.04056 -11.0155,-2.01151 -2.2599,2.62092 -6.2597,15.85785 -8.21469,27.18555 -1.5353,8.89597 -2.03457,25.14444 -0.90242,29.36901 1.04907,3.91462 2.36971,2.43743 2.36971,-2.65063 0,-10.98501 6.7363,-40.66691 10.1678,-44.80152 0.7114,-0.85722 1.601,-0.95679 2.8025,-0.31372 1.6496,0.88281 1.6116,1.24338 -0.6035,5.72899 -4.3269,8.76193 -9.3546,33.17313 -9.364,45.46545 0,3.73859 2.0324,6.82143 4.5035,6.82143 0.7499,0 2.5143,-0.43755 3.9209,-0.97233 z m 399.8662,85.29462 c -1.0188,-2.655 3.0633,-8.8223 5.8395,-8.8223 3.1822,0 3.5156,2.7147 0.8608,7.0102 -2.3154,3.7464 -5.6155,4.639 -6.7003,1.8121 z m -1114.24984,-3.7518 c -4.41141,-7.1378 0.057,-11.5129 4.70861,-4.6103 2.77583,4.1191 2.61317,7.4164 -0.38696,7.8443 -1.53815,0.2193 -2.74597,-0.6845 -4.32165,-3.234 z m 823.03054,-22.3955 c -4.4772,-1.3476 -3.171,-2.6742 2.6772,-2.7189 8.0184,-0.061 19.0836,-5.4992 27.8212,-13.6728 7.8055,-7.30163 9.4159,-10.10678 9.4629,-16.48363 0.034,-4.66598 0.075,-4.73003 1.4646,-2.29966 0.786,1.375 1.4451,4.59709 1.4646,7.1602 0.03,3.9339 -0.5716,5.42819 -3.8596,9.58779 -9.5729,12.1106 -29.2121,21.3825 -39.0309,18.427 z m 309.5926,-0.8417 c -2.1291,-2.129 2.9647,-10.3333 6.4156,-10.3333 3.1582,0 3.3605,2.7325 0.52,7.0248 -2.4131,3.6464 -5.2462,4.9979 -6.9356,3.3085 z m -1151.30152,-5.3577 c -2.11838,-3.201 -2.50635,-4.5289 -1.69822,-5.8122 1.88787,-2.9981 4.11887,-2.4442 6.86417,1.7043 3.02,4.5635 2.93305,7.4915 -0.23594,7.9446 -1.62559,0.2324 -2.88673,-0.7491 -4.93001,-3.8367 z m 834.21802,-7.4062 c -7.2609,-2.685 -10.9357,-9.0443 -9.2069,-15.93275 0.9531,-3.79723 9.932,-13.00104 19.2356,-19.71745 4.6135,-3.33049 8.3881,-6.45534 8.3881,-6.94412 0,-0.48877 -7.141,-6.29675 -15.8689,-12.90661 -15.4028,-11.66498 -25.6721,-21.34629 -28.554,-26.9193 -6.0037,-11.61003 1.2826,-27.29685 16.0861,-34.63163 8.175,-4.05055 20.8926,-4.70257 30.3368,-1.55534 9.6192,3.20555 16.3939,8.05148 19.9674,14.28263 4.6239,8.06261 3.7106,8.89162 -3.6249,3.29056 -6.9134,-5.27882 -14.3601,-7.707 -25.4074,-8.28473 -7.1811,-0.37555 -10.9981,-0.0835 -15.3161,1.17173 -10.2231,2.97195 -15.5588,10.44741 -12.7246,17.82762 1.3499,3.51511 2.1966,3.45604 4.3356,-0.30248 1.1191,-1.96647 3.7674,-3.99456 7.5,-5.74368 5.2556,-2.4628 6.7952,-2.69869 17.27,-2.6461 9.6237,0.0483 12.2342,0.40827 16,2.20611 l 4.5,2.14837 -4.5,-0.70611 c -8.8179,-1.38364 -23.2105,-0.8178 -28.2034,1.1088 -6.1202,2.36163 -10.7966,7.61987 -10.7966,12.14001 0,2.87717 0.9008,4.18772 6.0011,8.73093 3.3006,2.94008 9.9381,7.78392 14.75,10.76407 4.8119,2.98015 11.8183,7.41634 15.5698,9.8582 l 6.8209,4.43974 15.8567,-6.62393 c 8.7211,-3.64316 16.5642,-6.62393 17.4291,-6.62393 3.8148,0 0.6203,2.2601 -12.9164,9.13816 -7.9688,4.04901 -14.4938,7.94017 -14.5,8.64702 -0.012,1.42953 2.9119,6.34171 4.3972,7.386 0.525,0.36915 4.0135,-0.86926 7.7521,-2.75201 8.9106,-4.48733 21.8197,-9.59243 23.1417,-9.15176 1.667,0.55566 -4.0479,4.16282 -16.3678,10.33102 -12.0015,6.00886 -13.1936,6.91972 -12.4002,9.47511 1.6233,5.22836 -11.173,18.69623 -23.5342,24.76935 -9.7407,4.7856 -15.7329,5.8283 -21.4168,3.7265 z m 12.3758,-13.8709 c 6.9024,-6.39041 14.7124,-11.69849 17.2124,-11.69849 1.0351,0 1.8286,-0.71841 1.8286,-1.65561 0,-2.16721 -4.7334,-8.34439 -6.3941,-8.34439 -2.2448,0 -15.9473,10.7642 -19.8559,15.59818 -3.8411,4.75041 -4.673,8.07881 -2.55,10.20182 2.0912,2.09119 3.884,1.33769 9.759,-4.10151 z m 323.0808,-1.1505 c -2.2037,-2.65532 2.3339,-10.54799 6.0642,-10.54799 3.9438,0 3.2807,4.60737 -1.4033,9.75 -2.4043,2.63972 -3.0418,2.74886 -4.6609,0.79799 z M 108.0765,989.1896 c -3.01016,-4.42985 -3.15888,-5.59917 -0.94571,-7.43594 1.42336,-1.18128 2.0646,-0.85158 5.04144,2.5921 3.81105,4.40874 4.08053,7.83805 0.65427,8.32598 -1.5783,0.22476 -2.87906,-0.72881 -4.75,-3.48214 z M 856.5,990.36221 c -2.4148,-1.3804 -2.3259,-1.43034 2.6062,-1.46456 4.2326,-0.0294 5.8648,-0.61465 9.5401,-3.42094 14.6617,-11.19509 32.0584,-48.74371 29.3821,-63.4176 -0.6302,-3.45505 -0.5641,-3.58916 1.0099,-2.04997 5.6078,5.48386 0.131,28.84334 -11.5487,49.25672 -4.9228,8.60399 -13.7025,18.87942 -18.054,21.12963 -3.5713,1.84681 -9.6742,1.83111 -12.9356,-0.0333 z M 492.41032,976.8254 c -8.04009,-1.12122 -25.43551,-7.02088 -32.91032,-11.16154 -20.06745,-11.11634 -37.65777,-30.51762 -46.22527,-50.98424 -6.45632,-15.42329 -7.27898,-20.1496 -7.19175,-41.31741 0.0729,-17.68948 0.26564,-19.61571 2.79445,-27.92658 9.3466,-30.71739 33.96252,-58.52029 56.75829,-64.10668 9.74206,-2.38742 33.1775,-1.61243 43.67287,1.44421 19.33416,5.63083 40.45175,18.52385 56.35263,34.40521 26.64544,26.61274 40.48369,57.70829 38.53463,86.59014 -1.87731,27.81871 -23.54897,53.41663 -56.19585,66.37689 -4.95,1.96506 -12.6,4.32027 -17,5.23378 -9.54805,1.98235 -29.408,2.72663 -38.58968,1.44622 z M 556,950.35129 c 20.19184,-4.25816 35.91753,-19.57016 40.53818,-39.47178 1.94792,-8.38985 1.50162,-24.06021 -0.9832,-34.52266 -2.42957,-10.2298 -9.70759,-26.18501 -16.69501,-36.59958 -6.54521,-9.75548 -20.8832,-24.64902 -31.22967,-32.43974 -13.96234,-10.51341 -32.63693,-18.91772 -47.968,-21.58751 -9.05343,-1.57659 -26.17788,-0.56196 -33.36392,1.97683 -15.92073,5.6247 -26.87226,16.82198 -32.42768,33.15536 -1.50135,4.41407 -1.85164,8.26419 -1.77414,19.5 0.0839,12.16499 0.45021,15.16911 2.79476,22.91957 9.56807,31.62957 34.50683,60.49095 66.22212,76.63819 20.64066,10.5088 38.46007,13.89542 54.88656,10.43132 z m -25,-27.48324 c -6.50395,-0.90367 -12.97373,-3.20978 -22.74822,-8.10845 -30.4622,-15.26672 -50.31864,-47.96347 -46.68789,-76.87894 2.96328,-23.59964 25.0437,-36.79103 50.87222,-30.39233 21.80276,5.40138 44.38684,23.44136 56.80313,45.37388 16.17353,28.56943 9.86052,60.17352 -13.67881,68.47868 -5.06807,1.78812 -17.23654,2.54475 -24.56043,1.52716 z m 93.31108,54.04651 c -7.06454,-1.37436 -16.88814,-7.13128 -24.48879,-14.35115 -7.59958,-7.21886 -8.71279,-9.81227 -5.16594,-12.03489 1.30424,-0.81729 2.46376,-0.32903 5.45437,2.29676 5.64587,4.95714 12.82013,7.83393 21.45878,8.6047 13.9301,1.2429 26.11812,-3.33766 37.89615,-14.2423 8.71672,-8.07036 13.65576,-15.53586 17.32948,-26.19405 2.66546,-7.73301 2.88019,-9.36319 2.50864,-19.04417 -0.35061,-9.13509 -0.78489,-11.31935 -3.16624,-15.92475 -10.37679,-20.06815 -34.22798,-25.81619 -56.44646,-13.60338 -3.47851,1.91203 -6.74452,3.21686 -7.25781,2.89963 -4.99914,-3.08964 11.42459,-12.03978 26.51783,-14.45094 18.10602,-2.89245 37.47475,6.58216 49.04999,23.99382 10.01417,15.06345 13.91727,34.50979 10.16959,50.66768 -0.87138,3.75688 -1.88711,8.85449 -2.25718,11.32802 -0.91551,6.11921 -3.44781,8.54613 -23.77544,22.78609 -9.1741,6.42666 -16.22486,8.24044 -31.49339,8.10158 -6.95456,-0.0633 -14.30467,-0.43794 -16.33358,-0.83265 z m 688.21742,-11.51795 c -1.6559,-1.99525 2.656,-10.0344 5.382,-10.0344 3.6844,0 4.1944,2.98755 1.2655,7.41335 -2.8579,4.31866 -4.6516,5.0259 -6.6475,2.62105 z M 92.74743,963.61221 c -2.1906,-2.74521 -4.36151,-8.01033 -3.85117,-9.34026 1.36504,-3.55723 7.39828,0.21685 9.14514,5.72071 1.13193,3.56639 -3.05311,6.42775 -5.29397,3.61955 z m 530.15802,-8.13579 c -0.66337,-1.72871 3.11169,-18.01928 6.39912,-27.61421 2.68911,-7.84863 4.3528,-7.5981 7.96029,1.19876 4.51278,11.00437 6.40927,17.43136 6.0547,20.51871 -0.41223,3.5894 -5.24283,6.04387 -13.61759,6.91921 -5.20146,0.54366 -6.25644,0.38495 -6.79652,-1.02247 z m -14.22342,-2.1359 c -5.31353,-2.30435 -9.18203,-5.46503 -9.18203,-7.502 0,-3.45231 4.95184,-9.25202 14.21243,-16.64592 8.91775,-7.12017 12.32953,-9.12177 13.51967,-7.93162 1.38401,1.38401 -12.03071,32.75167 -14.2321,33.27895 -0.55,0.13174 -2.49309,-0.40799 -4.31797,-1.19941 z m 39.51225,-15.72831 c -12.10698,-17.17098 -13.17697,-19.75 -8.19397,-19.75 4.14811,0 25.85843,5.93017 27.41729,7.48903 1.3707,1.3707 1.34205,1.87335 -0.27827,4.8821 -2.84142,5.2762 -10.60419,13.62887 -12.66635,13.62887 -1.15951,0 -3.54906,-2.37863 -6.2787,-6.25 z m 678.69532,-2.17713 c -0.3012,-0.78493 0.3771,-3.51764 1.5073,-6.07271 1.6842,-3.80751 2.4652,-4.58735 4.329,-4.32287 1.8746,0.26601 2.2478,0.89772 2.1242,3.59551 -0.083,1.80004 -0.8804,4.38754 -1.7731,5.75 -1.7761,2.71075 -5.3194,3.31208 -6.1874,1.05007 z M 77.48904,931.61221 c -2.35974,-3.87025 -2.5985,-8.5789 -0.47631,-9.39326 2.15939,-0.82863 3.95871,1.01169 5.47184,5.59652 1.06441,3.22517 1.07245,4.27311 0.0423,5.51431 -1.85949,2.24055 -2.82532,1.91127 -5.03787,-1.71757 z m 533.02614,-7.5 c 0.008,-0.4125 0.61986,-2.775 1.35891,-5.25 1.45761,-4.88139 2.7212,-5.57991 8.22577,-4.54724 4.79634,0.89979 4.27114,2.90754 -1.83651,7.02067 -5.02623,3.38486 -7.78046,4.37185 -7.74817,2.77657 z m 396.65152,0.0833 c -1.1507,-1.1506 -0.7283,-2.3333 0.8333,-2.3333 0.825,0 1.5,0.675 1.5,1.5 0,1.56157 -1.1827,1.98397 -2.3333,0.83333 z m -358.15751,-9.25992 c -9.71609,-0.79695 -9.78051,-2.52556 -0.31244,-8.38354 4.01679,-2.48523 10.82509,-6.24463 15.12956,-8.35423 7.71702,-3.78207 7.84741,-3.80771 9.33683,-1.83564 2.22452,2.94539 1.33154,16.2995 -1.21443,18.16116 -1.89559,1.38609 -9.41862,1.52129 -22.93952,0.41225 z m -30.50919,-5.358 -3.5,-1.21538 -0.2888,-9.34627 c -0.22474,-7.27311 -0.003,-9.25406 1,-8.93058 1.84821,0.5961 11.91013,16.90313 11.56267,18.73924 -0.37273,1.96963 -4.29971,2.30665 -8.77387,0.75299 z m 19.63217,-2.50153 c -1.22365,-1.9799 13.72601,-32.21385 15.92865,-32.21385 3.72189,0 13.43918,6.89896 13.43918,9.54138 0,0.64197 -4.8375,5.19665 -10.75,10.12152 -16.5513,13.78656 -17.471,14.40656 -18.61783,12.55095 z m -8.00938,-3.9764 c -0.78572,-1.51941 -3.06185,-7.45483 -5.05807,-13.18983 -4.19724,-12.05835 -4.06465,-12.47881 4.86342,-15.42266 6.14099,-2.02487 10.45904,-2.08254 11.20078,-0.14959 0.54942,1.43176 -4.01145,24.74461 -5.72722,29.27463 -1.1598,3.06213 -3.5504,2.83002 -5.27891,-0.51255 z M 1338.7,904.66221 c -1.4612,-1.46123 -1.5525,-5.74259 -0.1984,-9.30424 0.7403,-1.94703 1.5883,-2.55111 3.25,-2.3151 2.0022,0.28438 2.2302,0.84447 2.0825,5.1155 -0.2212,6.39839 -2.4351,9.20286 -5.1341,6.50384 z M 68.4656,901.32076 c -0.74277,-0.89498 -1.37639,-3.72678 -1.40804,-6.29289 -0.0505,-4.09691 0.21652,-4.70459 2.19083,-4.985 2.74189,-0.38943 4.50044,3.41146 4.05044,8.75455 -0.33473,3.97439 -2.63311,5.17433 -4.83323,2.52334 z m 1271.4399,-30.84415 c -0.2924,-0.76207 -0.3908,-3.34957 -0.2186,-5.75 0.2802,-3.9052 0.5761,-4.3644 2.8131,-4.3644 2.2037,0 2.574,0.53325 3.1247,4.5 0.3489,2.51345 0.1845,5.05182 -0.3724,5.75 -1.3365,1.67531 -4.6844,1.5904 -5.3468,-0.1356 z M 66.46314,868.3178 c -0.94796,-1.14222 -1.04495,-2.76983 -0.37244,-6.25 0.79424,-4.11015 1.22565,-4.70559 3.4093,-4.70559 2.22258,0 2.53392,0.46738 2.80563,4.21179 0.49569,6.83088 -2.70454,10.5248 -5.84249,6.7438 z M 1334.0376,837.55994 c -2.4339,-3.71462 -2.9474,-8.11276 -1.1238,-9.62619 2.1648,-1.79659 4.2267,-0.003 5.7174,4.97202 1.9139,6.38807 -1.3144,9.65892 -4.5936,4.65417 z M 72.84721,835.32465 c -0.79543,-2.07286 1.73487,-8.48085 3.88414,-9.83657 1.32897,-0.83829 2.10675,-0.71634 3.34805,0.52496 1.48923,1.48923 1.45567,1.98147 -0.42501,6.23305 -2.11897,4.79029 -5.55416,6.34387 -6.80718,3.07856 z m 854.14839,-3.4695 c -0.3423,-0.55389 0.1937,-1.25357 1.191,-1.55486 7.5989,-2.29549 8.1445,-3.70563 11.3896,-29.43808 2.1914,-17.37763 3.8939,-25.16741 5.4728,-25.04123 1.3947,0.11146 1.0158,5.39651 -1.8669,26.04123 -3.3626,24.08144 -4.4131,28.78564 -6.7014,30.01035 -2.4065,1.28787 -8.6855,1.27634 -9.4851,-0.0174 z m -7.0225,-13.20248 c -0.3093,-0.8061 1.0733,-7.50123 3.0726,-14.87805 3.0555,-11.27399 3.7186,-15.56479 4.1596,-26.91241 0.5727,-14.74088 1.4044,-17 6.2586,-17 4.9806,0 6.4221,2.03627 5.7344,8.10019 -3.0478,26.87436 -6.3674,47.06508 -8.1357,49.48326 -1.6433,2.24742 -10.3276,3.19263 -11.0895,1.20701 z m 401.7743,-11.04046 c -0.5486,-0.6875 -1.7692,-2.76844 -2.7124,-4.62432 -1.5306,-3.01171 -1.5524,-3.53684 -0.2025,-4.88674 2.1543,-2.15431 4.2583,-0.96128 6.6815,3.78854 1.6523,3.23875 1.8505,4.43081 0.9228,5.54872 -1.4582,1.75698 -3.3695,1.82782 -4.6894,0.1738 z M 86.48093,805.33923 c -1.03043,-1.2416 -0.93214,-2.25881 0.53203,-5.50575 2.46059,-5.45663 4.14276,-6.74412 6.16688,-4.72 1.90119,1.90119 1.2558,5.28954 -1.73069,9.08625 -2.41158,3.06583 -3.21633,3.2504 -4.96822,1.1395 z M 1304.5914,777.25127 c -1.1742,-1.49271 -2.3924,-3.74033 -2.7073,-4.99471 -1.3485,-5.3728 3.4402,-6.03274 6.606,-0.91038 3.9407,6.37612 0.5324,11.53834 -3.8987,5.90509 z M 102.49419,775.35521 c -1.85962,-2.24071 3.22216,-9.74546 6.301,-9.30529 2.98699,0.42704 3.20718,2.84652 0.65302,7.1755 -2.26729,3.84277 -4.87065,4.64009 -6.95402,2.12979 z M 1285.9689,747.99454 c -2.9857,-4.51164 -2.9381,-7.49023 0.1267,-7.93031 2.8064,-0.40297 8.1542,7.38433 6.6795,9.72646 -1.8304,2.90713 -4.088,2.31136 -6.8062,-1.79615 z m -885.91855,1.02347 -3.94966,-1.79084 9.18041,0.43892 c 10.70224,0.51168 12.87682,-0.0616 33.85724,-8.92615 34.49356,-14.57401 62.2974,-34.95202 80.17646,-58.76298 10.74222,-14.30627 16.1852,-27.22103 16.1852,-38.40324 0,-4.80784 0.27782,-5.81888 1.47292,-5.36027 0.81011,0.31086 2.85356,-0.59652 4.541,-2.01641 2.71993,-2.28867 3.63259,-2.50673 8.04291,-1.92168 9.59577,1.27292 24.26337,5.57052 32.31782,9.4691 10.89141,5.27174 14.75052,9.15055 16.9403,17.02675 0.9501,3.41735 1.53612,6.52333 1.30225,6.90218 -0.23387,0.37885 -1.15258,4.90464 -2.04158,10.0573 -3.12669,18.12239 -13.41929,40.24036 -22.5751,48.51209 -3.4849,3.14839 -4.6608,3.61943 -9.03552,3.61943 -6.85826,0 -10.80265,-1.87261 -15.72618,-7.46603 -6.0683,-6.89395 -8.24131,-13.63029 -9.33458,-28.93716 -0.86279,-12.08006 0.034,-36.39634 1.62655,-44.10121 0.49741,-2.40658 0.10842,-3.48592 -1.95491,-5.42431 l -2.57588,-2.41992 0,6.20586 c 0,10.964 -5.57878,23.83383 -16.57963,38.24795 -19.40865,25.43065 -48.03764,45.46165 -87.92037,61.51572 -10.84893,4.36703 -12.8633,4.85414 -21,5.07806 -6.91358,0.19027 -9.91562,-0.16747 -12.94965,-1.54316 z m 169.22462,-36.48978 c 2.79247,-1.55044 9.15332,-9.142 12.4803,-14.89502 5.53883,-9.57775 8.11733,-22.56557 6.52687,-32.87552 -0.81493,-5.28263 -2.36967,-7.60918 -7.07514,-10.58742 -5.12756,-3.2454 -22.80175,-8.61331 -24.09657,-7.31849 -1.91865,1.91865 -4.65652,18.07966 -5.26632,31.08578 -0.61824,13.18636 0.73594,26.92465 2.65397,26.92465 0.42439,0 0.54538,-2.81846 0.26886,-6.26325 -0.89745,-11.18034 3.45739,-41.06345 6.12584,-42.03581 1.22596,-0.44673 12.41078,2.70456 17.10722,4.81991 6.30358,2.83923 -2.18397,1.45254 -10.41194,-1.70109 -3.63803,-1.39439 -4.71195,0.43294 -7.1583,12.18024 -2.65541,12.75117 -3.29017,37.65588 -1.02919,40.38019 1.59113,1.91719 6.67132,2.06424 9.8744,0.28583 z m -448.78078,34.82698 c -1.85962,-2.24071 3.22216,-9.74546 6.301,-9.30529 2.98699,0.42704 3.20718,2.84652 0.65302,7.1755 -2.26729,3.84277 -4.87065,4.64009 -6.95402,2.12979 z m 678.32843,-5.18922 c -1.19756,-0.23312 -2.71516,-1.07183 -3.37244,-1.86381 -1.00306,-1.20861 -0.608,-1.43997 2.45876,-1.43997 4.37895,0 5.11067,-1.3566 3.65252,-6.77175 -1.07146,-3.97909 -1.07456,-3.9811 -5.40105,-3.49344 -2.8248,0.31839 -5.38218,-0.0567 -7.36003,-1.07948 -3.82588,-1.97843 -3.60282,-0.27071 -6.81227,-52.15533 l -2.53615,-41 3.578,-3.31293 c 1.9679,-1.82211 4.34006,-3.16617 5.27146,-2.9868 2.18677,0.42114 2.70191,4.72719 4.16313,34.79973 1.21488,25.00267 2.6044,43.59475 3.64819,48.8137 1.11582,5.57909 2.6283,3.59338 1.95273,-2.5637 -0.56581,-5.15671 -3.52492,-58.44739 -3.55378,-64 -0.0138,-2.66234 1.6211,-3.00394 2.39304,-0.5 0.29672,0.9625 1.24103,15.475 2.09845,32.25 1.66463,32.56759 2.61432,42.84334 5.12351,55.43733 1.49738,7.51551 1.48602,8.00709 -0.21377,9.25 -0.98735,0.72197 -2.04667,1.25139 -2.35405,1.17649 -0.30738,-0.0749 -1.53869,-0.32692 -2.73625,-0.56004 z m -231.02339,-1.4098 c -4.85897,-1.40519 -5.47563,-3.34657 -0.82319,-2.59158 2.26512,0.36758 5.0402,0.086 6.90547,-0.70066 13.02988,-5.49528 28.54518,-39.83388 28.65393,-63.41712 0.0331,-7.16924 0.13128,-7.51695 1.46456,-5.18462 2.05677,3.59794 1.84586,16.00027 -0.43365,25.5 -5.12918,21.37558 -16.31048,41.54078 -25.43446,45.87039 -3.79893,1.80271 -5.59492,1.89372 -10.33266,0.52359 z m 50.27416,0.22477 c -0.33683,-0.545 0.60291,-1.58218 2.0883,-2.30483 2.31432,-1.12593 3.22794,-3.0308 6.38567,-13.31392 9.10285,-29.64337 19.0773,-52.57205 25.35051,-58.27425 4.01456,-3.64914 4.03033,-3.69896 2.53225,-7.99635 -2.55548,-7.33067 -7.02726,-3.86913 -14.27839,11.05268 -5.0637,10.4204 -13.48824,33.06781 -18.86641,50.71792 -2.2116,7.25806 -2.39426,7.51041 -5.66248,7.82284 -1.85743,0.17757 -3.80207,-0.10207 -4.32141,-0.62141 -1.14969,-1.14969 -1.7415,-102.12044 -0.60267,-102.82427 0.43144,-0.26664 2.87057,0.95049 5.42029,2.70475 l 4.63586,3.18955 -0.4418,27.86427 c -0.24299,15.32535 -0.11936,27.86427 0.27472,27.86427 1.67025,0 2.91258,-6.9815 2.91816,-16.39922 0.009,-15.98771 1.06367,-26.60078 2.64223,-26.60078 1.06458,0 1.35178,2.6919 1.35178,12.67015 l 0,12.67014 5.1103,-10.17397 c 5.47565,-10.90132 13.07489,-20.16632 16.54062,-20.16632 3.95563,0 10.37196,5.80154 13.07183,11.81935 1.40174,3.12436 4.03114,8.83065 5.84312,12.68065 2.54331,5.40388 3.77549,10.19225 5.40389,21 3.40446,22.5956 3.79188,23.37251 13.25197,26.57506 2.87452,0.97312 5.37927,2.22793 5.56611,2.78846 0.5043,1.5129 -5.20284,4.13703 -8.98818,4.13274 -1.81481,-0.002 -4.71004,-0.86374 -6.43383,-1.91486 -6.81429,-4.15515 -10.61221,-11.98144 -16.42702,-33.85078 -1.84942,-6.95563 -3.76454,-12.23062 -4.44041,-12.23062 -2.58502,0 -6.71755,6.84385 -12.94189,21.43298 -3.93077,9.21327 -14.01001,38.17822 -16.20441,46.56702 -0.81025,3.09746 -1.33251,3.53506 -4.54092,3.80483 -1.99396,0.16765 -3.90096,-0.14109 -4.23779,-0.68608 z M 671.5,686.86221 c 0,-0.55 -0.45,-1 -1,-1 -0.55,0 -1,0.45 -1,1 0,0.55 0.45,1 1,1 0.55,0 1,-0.45 1,-1 z m -1.56686,-8.75 c -0.71796,-4.94678 -1.09101,-5.92546 -1.93641,-5.08007 -0.84382,0.84383 0.71067,9.83007 1.70047,9.83007 0.53401,0 0.6338,-2.00879 0.23594,-4.75 z m -1.43314,-9.25 c 0,-0.55 -0.45,-1 -1,-1 -0.55,0 -1,0.45 -1,1 0,0.55 0.45,1 1,1 0.55,0 1,-0.45 1,-1 z m 34.5395,72.06392 c -0.31819,-0.51485 0.66775,-1.53223 2.19099,-2.26085 2.2477,-1.07516 3.19957,-2.73581 5.05207,-8.81392 4.66641,-15.31063 14.57567,-41.78445 19.02739,-50.83407 2.87651,-5.84744 5.87827,-10.40104 8.02042,-12.16679 3.10371,-2.55834 3.35973,-3.16142 2.74136,-6.45764 -0.7715,-4.11244 -2.63763,-5.27729 -6.00005,-3.74526 -4.68669,2.1354 -17.5517,31.5811 -25.65277,58.71461 -1.8063,6.05 -3.7071,11.5625 -4.224,12.25 -0.51689,0.6875 -2.1222,1.25655 -3.56735,1.26455 -1.44516,0.008 -4.52775,0.67655 -6.8502,1.48565 -2.91927,1.01703 -4.97276,1.18591 -6.65286,0.54713 -3.98062,-1.51342 -4.12876,-3.04733 -0.2943,-3.04733 1.90808,0 4.50267,-0.85508 5.80902,-1.91442 L 695,724.03336 l 0.005,-49.25407 c 0.004,-31.7641 0.35863,-49.37017 1,-49.58103 0.54698,-0.17982 3.01951,1.01658 5.49451,2.65867 l 4.5,2.98563 -0.36511,27.00982 c -0.25825,19.14011 -0.0453,27.00983 0.73143,27.00983 1.79298,0 2.32467,-4.08585 2.99613,-23.02428 0.73945,-20.85613 2.48458,-24.87605 2.91978,-6.72572 0.15495,6.4625 0.60495,11.74796 1,11.74548 0.39504,-0.002 2.65175,-3.79027 5.0149,-8.41728 8.20093,-16.05731 13.95568,-21.309 19.95222,-18.20807 3.39298,1.75458 9.25114,8.07887 9.25114,9.98725 0,0.70828 2.0427,5.48472 4.53932,10.61432 4.06254,8.34693 4.79312,10.97234 6.95565,24.99565 1.32897,8.61801 2.86619,16.85237 3.41604,18.29858 1.19771,3.15022 4.53941,5.48754 10.26095,7.17691 5.26437,1.55438 5.82257,2.99151 1.94148,4.9985 -6.37295,3.29558 -13.1581,1.24061 -18.00751,-5.45381 -3.78977,-5.23162 -6.34212,-11.85246 -10.55369,-27.37642 -1.92318,-7.08889 -3.71478,-13.10698 -3.98134,-13.37354 -3.46441,-3.46441 -14.47899,19.43928 -24.65255,51.26243 -7.0236,21.96999 -6.2823,20.5 -10.33789,20.5 -1.90434,0 -3.72276,-0.42124 -4.04096,-0.93608 z m 52.83316,-58.31392 c -0.69428,-4.53273 -1.05708,-5.39891 -1.90583,-4.55017 -0.83264,0.83265 0.68187,8.80017 1.6728,8.80017 0.4862,0 0.59107,-1.9125 0.23303,-4.25 z m -1.37266,-9.25 c 0,-0.825 -0.45,-1.5 -1,-1.5 -0.55,0 -1,0.675 -1,1.5 0,0.825 0.45,1.5 1,1.5 0.55,0 1,-0.675 1,-1.5 z m -1,-5.5 c 0,-0.55 -0.45,-1 -1,-1 -0.55,0 -1,0.45 -1,1 0,0.55 0.45,1 1,1 0.55,0 1,-0.45 1,-1 z m 87.08913,71.6074 c -0.96732,-1.16555 0.11324,-1.45127 6.62757,-1.75245 11.9429,-0.55214 16.9445,-3.47699 33.2746,-19.45839 7.4298,-7.27112 14.6337,-15.08883 16.0087,-17.3727 1.375,-2.28387 3.2541,-5.13605 4.1757,-6.33817 1.5059,-1.96417 1.7432,-2.01239 2.3416,-0.47571 1.5347,3.94072 -3.9927,12.05072 -17.6231,25.85738 -11.1823,11.32687 -14.6136,14.1755 -20.7786,17.25 -6.5984,3.29068 -8.2084,3.68264 -15.1275,3.68264 -5.3975,0 -8.09333,-0.42187 -8.89897,-1.3926 z M 392.79385,735.81522 C 387.62649,733.7705 382.5,729.02164 382.5,726.27965 c 0,-1.17726 1.48853,-1.31469 8.44663,-0.77985 9.05848,0.69629 14.04667,-0.46577 15.00856,-3.49642 0.28694,-0.90406 0.63941,-15.9071 0.78326,-33.3401 0.18558,-22.48996 -0.0657,-32.02429 -0.86511,-32.82537 -0.83664,-0.83839 -2.69555,-0.33704 -7.22148,1.94764 -6.72036,3.39243 -9.15186,3.82296 -9.15186,1.62048 0,-0.81026 3.65946,-3.3608 8.25,-5.75 l 8.25,-4.29382 0.31414,-4.38586 c 0.17277,-2.41223 -0.11969,-4.81969 -0.64993,-5.34993 -0.61874,-0.61874 -4.57395,0.73394 -11.04227,3.77646 -11.81202,5.55604 -13.12194,5.29145 -13.12194,-2.65057 0,-4.53858 0.25162,-5.02223 3.75,-7.2081 2.0625,-1.28869 6.675,-3.80506 10.25,-5.59192 10.5376,-5.26692 9.93174,-3.39166 8.97682,-27.78474 -1.18001,-30.14273 -1.89523,-37.30534 -3.72513,-37.30534 -1.74288,0 -11.79419,5.91278 -18.25169,10.73673 -4.84231,3.61736 -12.01302,12.46627 -14.01121,17.29034 -1.2435,3.00207 -3.98879,4.11852 -3.98879,1.62215 0,-2.93519 2.52803,-8.40064 6.1888,-13.37982 4.50499,-6.12743 11.20624,-11.36971 22.3112,-17.45366 l 8,-4.38288 0,-4.46643 c 0,-4.39797 -0.0496,-4.4642 -3.23427,-4.32069 -4.74659,0.21388 -18.80337,8.81536 -25.88646,15.84016 -3.36639,3.3387 -7.31148,8.42021 -8.76684,11.29223 -3.21335,6.34124 -6.03479,7.16166 -5.06176,1.47187 0.8647,-5.05633 5.50791,-14.91884 9.14515,-19.42494 5.18373,-6.42203 14.53341,-13.66987 23.30418,-18.06531 4.675,-2.34286 8.83061,-4.70975 9.23469,-5.25975 0.40408,-0.55 0.74158,-2.41588 0.75,-4.14641 0.0114,-2.33896 0.92242,-3.94286 3.55011,-6.25 4.46583,-3.92106 6.34733,-3.94293 7.11936,-0.0828 0.33229,1.66144 1.00481,3.26842 1.49449,3.57106 0.48967,0.30264 3.48194,-0.34663 6.64947,-1.44283 21.85175,-7.56225 51.37761,-3.17189 60.15486,8.94475 1.61384,2.22784 3.66844,6.26105 4.56578,8.9627 1.54363,4.64743 1.52415,5.33676 -0.36159,12.79383 -3.57247,14.1272 -11.42977,27.27243 -24.33893,40.71891 -6.53597,6.80802 -9.14148,10.43077 -7.5019,10.43077 3.15458,0 12.65518,-2.59397 14.0555,-3.8376 3.59108,-3.18927 10.66012,-13.06848 14.55307,-20.33838 5.0576,-9.44486 7.38293,-17.69681 7.27664,-25.82285 -0.0777,-5.94062 0.0279,-6.28561 1.22502,-4.00117 4.81755,9.19339 0.59822,25.74592 -10.77222,42.25972 -2.55989,3.71784 -4.65435,7.20534 -4.65435,7.75 0,0.56189 3.13628,0.99383 7.25,0.99848 24.0534,0.0272 41.97042,5.72844 47.72127,15.18496 3.24723,5.33964 5.31482,12.87731 4.1774,15.22925 -0.5526,1.14268 -1.28101,3.75708 -1.61868,5.80978 -0.9134,5.55266 -8.78991,20.59068 -15.15341,28.93125 -19.78033,25.92588 -48.51944,46.16156 -88.0674,62.00968 -11.22723,4.49911 -13.85894,5.1767 -21.30918,5.4865 -6.81987,0.2836 -9.52906,-0.0537 -13.70615,-1.70661 z m 27.61963,-32.95301 c -0.42011,-7.975 -0.79751,-24.75349 -0.83866,-37.28554 l -0.0748,-22.78553 4.42932,-1.89863 c 7.67914,-3.29167 19.86367,-6.82085 31.15976,-9.02526 20.73167,-4.04575 50.81594,-3.71464 58.41092,0.64287 2.29152,1.31472 1.99965,1.36836 -3.5,0.64321 -9.15221,-1.20675 -34.96304,-0.86291 -44.5,0.59281 -12.70965,1.94001 -29.94701,6.53637 -36.60401,9.7605 L 423,646.36221 l -0.24456,18.5 c -0.13451,10.175 0.0905,25.925 0.5,35 l 0.74456,16.5 3.18111,-0.13996 c 1.74961,-0.077 7.82461,-2.36224 13.5,-5.07838 21.61215,-10.34318 42.73078,-25.27746 57.86178,-40.91764 14.98688,-15.4912 19.62651,-23.37939 20.50163,-34.85633 0.47754,-6.26276 0.35197,-6.76505 -2.37231,-9.48933 -5.20687,-5.20687 -12.13523,-6.52231 -34.17221,-6.48803 -16.23298,0.0252 -21.41906,0.41382 -30.9544,2.31931 -13.2636,2.65051 -28.1044,7.23489 -32.82706,10.14039 l -3.28146,2.01883 0.58623,25.74557 c 0.65924,28.9521 2.1291,56.87413 3.07446,58.40376 1.62837,2.63477 2.0171,-1.84376 1.31571,-15.15819 z m -2.53015,-94.08802 c -0.0642,-3.52659 -0.46997,-17.08358 -0.90177,-30.12666 -0.58645,-17.71469 -0.48734,-24.07343 0.39174,-25.13265 0.64725,-0.77989 4.42804,-2.48329 8.40176,-3.78533 6.15297,-2.01609 9.22795,-2.36734 20.72494,-2.36734 10.13471,0 14.17229,0.37392 16.1969,1.5 2.4983,1.38954 1.65142,1.5 -11.5,1.5 -11.95458,0 -15.33232,0.35698 -21.38565,2.26018 -11.25847,3.53972 -10.71951,2.03721 -9.93966,27.71005 0.84826,27.92516 1.35104,32.52977 3.55194,32.52977 2.71715,0 16.08506,-9.36051 22.92641,-16.05358 C 460.55232,582.91406 471.5,563.00127 471.5,551.06306 c 0,-4.85538 -5.76611,-10.45998 -12.95905,-12.59605 -10.94757,-3.25108 -35.12038,-1.0589 -42.63784,3.86673 -3.4535,2.26282 -3.98276,12.68396 -2.03097,39.98996 0.90571,12.67118 1.6425,25.43851 1.63731,28.37184 -0.007,3.8278 0.34341,5.21439 1.24055,4.91198 0.84341,-0.2843 1.21205,-2.50701 1.13333,-6.83333 z m 352.28334,121.42135 c -1.46876,-1.46875 -0.50136,-2.33333 2.61082,-2.33333 1.80263,0 4.2073,-0.65126 5.34373,-1.44725 2.06475,-1.4462 6.37878,-1.08221 6.37878,0.5382 0,2.55688 -12.24815,5.32756 -14.33333,3.24238 z m 59.60275,-5.3193 c -7.42098,-3.75269 -12.52698,-9.35674 -14.40118,-15.80589 -0.79743,-2.74397 -1.34157,-9.0886 -1.3043,-15.20814 0.14317,-23.51192 11.79535,-48.68378 25.89179,-55.93328 7.14237,-3.67317 17.36357,-4.05465 23.54087,-0.87862 5.903,3.035 7.2019,5.71221 6.7008,13.8119 -0.9602,15.52037 -13.2674,34.61751 -31.95841,49.58986 -9.92359,7.94925 -10.03209,8.10538 -8.01073,11.52727 3.40553,5.76511 5.09086,5.01433 19.04324,-8.48334 9.875,-9.55313 16.3785,-18.37032 20.5981,-27.92605 2.8585,-6.47339 5.0007,-16.57927 4.0432,-19.07433 -0.3523,-0.91825 -0.1313,-1.63341 0.505,-1.63341 0.6224,0 1.6108,1.2375 2.1963,2.75 2.3993,6.19783 -2.9072,22.72129 -11.2384,34.99414 -1.7756,2.61572 -7.7185,9.14887 -13.2064,14.51811 -5.488,5.36924 -9.67818,10.0622 -9.31158,10.4288 1.18859,1.1886 11.19008,-2.59919 17.31378,-6.5571 7.8901,-5.09966 26.0733,-20.7656 30.8062,-26.54145 4.2788,-5.22168 5.5223,-5.6839 5.5223,-2.05266 0,4.81738 -3.8746,10.09203 -17.6648,24.04759 -17.0759,17.28076 -22.5102,20.58595 -34.8352,21.18712 -7.38776,0.36034 -8.47683,0.14908 -14.23058,-2.76052 z m 0.74728,-33.53416 c 0.69388,-0.83607 2.27261,-4.41346 3.50829,-7.94976 5.00791,-14.33177 15.93501,-28.53011 21.95691,-28.53011 3.5407,0 5.229,-4.26604 3.0216,-7.63498 -3.2507,-4.96121 -11.0679,-2.38744 -17.51283,5.766 -7.06447,8.93723 -14.99067,28.78036 -14.99067,37.52894 0,2.66607 2.1246,3.09976 4.0167,0.81991 z m 16.2814,-12.5199 c 6.4045,-7.07725 12.4256,-17.63623 10.917,-19.14482 -1.4313,-1.4314 -4.3665,0.37557 -8.551,5.26421 -3.50596,4.09589 -10.6641,16.72651 -10.6641,18.81687 0,2.59901 3.2037,0.69324 8.2981,-4.93626 z m 420.7312,40.92178 c -3.3016,-4.55773 -3.3969,-5.64062 -0.6432,-7.31031 1.455,-0.88227 2.2899,-0.45348 4.7287,2.42856 1.9093,2.25631 2.8593,4.38531 2.6735,5.99145 -0.4709,4.06914 -3.3499,3.59645 -6.759,-1.1097 z m -1127.8168,0.93075 c -1.72796,-1.72796 -1.50999,-3.59508 0.86906,-7.44447 2.23406,-3.61479 4.89046,-4.31159 6.95472,-1.82431 1.0707,1.29011 0.80333,2.22174 -1.62755,5.67088 -3.28331,4.65864 -4.45509,5.33904 -6.19623,3.5979 z m 1109.8393,-29.44929 c -2.5542,-4.32898 -2.334,-6.74846 0.653,-7.1755 3.0789,-0.44017 8.1606,7.06458 6.301,9.30529 -2.0834,2.5103 -4.6867,1.71298 -6.954,-2.12979 z m -1093.67702,0.17107 c -0.85816,-2.23632 3.83241,-10.03428 6.03574,-10.03428 3.68438,0 4.19438,2.98755 1.26552,7.41335 -2.77756,4.19718 -6.22193,5.4336 -7.30126,2.62093 z M 1234.3718,661.53532 c -2.4899,-5.12498 -1.9701,-7.96834 1.3698,-7.49325 1.4735,0.2096 2.8749,1.64899 4.0588,4.1688 2.2128,4.70961 1.8865,7.05036 -1.0411,7.46833 -1.768,0.25242 -2.6616,-0.59159 -4.3875,-4.14388 z M 172.7,662.66221 c -1.76061,-1.76061 -1.46215,-4.85777 0.8305,-8.61817 2.75866,-4.52477 5.51054,-3.97807 5.35871,1.06459 -0.10683,3.54827 -2.61165,8.75358 -4.21226,8.75358 -0.42732,0 -1.31695,-0.54 -1.97695,-1.2 z m 1055.466,-17.55 c -2.4305,-4.82485 -2.7849,-7.90645 -1.0725,-9.32759 2.2775,-1.89018 4.5101,-0.11152 6.1915,4.93266 1.1079,3.32378 1.1474,4.52145 0.1871,5.67855 -1.8497,2.22881 -3.7708,1.76408 -5.3061,-1.28362 z M 182.8659,630.37334 c -0.34384,-0.89603 -0.22882,-3.5151 0.2556,-5.82014 0.65813,-3.13163 1.40814,-4.26638 2.96713,-4.48925 3.4961,-0.49978 4.49966,1.78211 3.0107,6.84568 -0.96063,3.26682 -1.88173,4.53783 -3.45879,4.77272 -1.28524,0.19142 -2.40084,-0.3349 -2.77464,-1.30901 z M 785.5,616.36221 c 0,-0.825 0.60456,-1.5 1.34346,-1.5 1.99982,0 9.65654,-9.52497 9.65654,-12.01274 0,-3.74445 2.48101,-1.55986 2.81883,2.48205 0.27948,3.34382 -0.20913,4.35268 -3.95821,8.1727 -3.02473,3.08198 -5.09447,4.35799 -7.06883,4.35799 -1.81492,0 -2.79179,-0.52486 -2.79179,-1.5 z m 434.0383,-1.95384 c -0.6636,-0.79962 -1.2812,-3.61212 -1.3724,-6.25 -0.1554,-4.49347 -0.01,-4.79616 2.3341,-4.79616 2.1645,0 2.6635,0.66243 3.7181,4.93597 0.8825,3.57619 0.9177,5.29796 0.1276,6.25 -1.4289,1.72163 -3.3079,1.66698 -4.8074,-0.13981 z M 778.16667,604.19554 c -1.49555,-1.49554 -0.51031,-7.09916 1.86201,-10.59035 2.52872,-3.72134 6.98438,-6.74298 9.9431,-6.74298 2.06876,0 3.94276,4.24244 3.16993,7.17626 -1.0734,4.07488 -8.20334,10.82374 -11.43492,10.82374 -1.5804,0 -3.17346,-0.3 -3.54012,-0.66667 z m -587.31745,-5.86565 c -0.3546,-0.92408 -0.24074,-3.76984 0.25303,-6.32391 0.78244,-4.04729 1.21887,-4.64377 3.39775,-4.64377 2.14087,0 2.53741,0.50278 2.76043,3.5 0.45413,6.10312 -4.65238,12.0511 -6.41121,7.46768 z M 1212.0866,582.00233 c -0.3312,-0.53585 -0.8718,-2.94153 -1.2013,-5.34597 -0.4621,-3.37094 -0.2199,-4.68654 1.0579,-5.74702 2.6396,-2.19063 4.9133,0.84916 4.9921,6.67393 0.056,4.15655 -0.216,4.81895 -2.0909,5.08613 -1.1856,0.16895 -2.4266,-0.13123 -2.7578,-0.66707 z M 197.67909,565.578 c -1.34603,-1.62186 0.0677,-8.39114 2.19715,-10.5206 1.29476,-1.29476 1.77037,-1.31841 3.16912,-0.15754 1.2566,1.04288 1.49455,2.31132 1.00633,5.36448 -0.96567,6.03896 -3.80547,8.40687 -6.3726,5.31366 z M 1205.6307,549.51971 c -0.6128,-0.73837 -1.2304,-3.55087 -1.3724,-6.25 -0.2432,-4.62005 -0.1138,-4.9075 2.2082,-4.9075 2.0918,0 2.6729,0.73056 3.8245,4.80782 1.0581,3.74622 1.0936,5.12627 0.161,6.25 -1.4985,1.80556 -3.3734,1.84432 -4.8213,0.0997 z M 203.98437,532.67918 c -0.27734,-0.72433 0.0806,-3.34197 0.79548,-5.81697 0.97677,-3.3818 1.85007,-4.57955 3.51442,-4.82014 2.88454,-0.41696 3.69825,1.82684 2.58536,7.12915 -0.74912,3.56919 -1.28848,4.23802 -3.63532,4.50796 -1.60877,0.18505 -2.96555,-0.23115 -3.25994,-1 z m 993.67203,-16.5247 c -2.0597,-3.84868 -2.3902,-8.85338 -0.6783,-10.2741 2.5633,-2.12733 5.5552,1.50142 5.8148,7.05248 0.1808,3.86798 -0.069,4.46873 -1.9752,4.74003 -1.3249,0.18862 -2.567,-0.40796 -3.1613,-1.51841 z m -984.85388,-15.9463 c -0.34909,-0.90972 0.003,-3.49722 0.78138,-5.75 1.14946,-3.32474 1.88682,-4.09597 3.9161,-4.09597 2.26297,0 2.47899,0.35674 2.27844,3.7626 -0.12185,2.06942 -0.70019,4.65692 -1.28518,5.75 -1.29008,2.41053 -4.81443,2.61699 -5.69074,0.33337 z m 829.80218,-13.23352 -2.3952,-1.84018 0.7229,-16.13613 c 0.4826,-10.77026 0.3839,-16.13614 -0.2966,-16.13614 -0.5608,0 -4.0833,4.48648 -7.8277,9.96996 -3.7445,5.48347 -7.3576,10.18935 -8.0292,10.45751 -0.6715,0.26815 -1.8803,-0.17175 -2.6861,-0.97756 -1.2868,-1.28682 -0.2483,-3.22629 8.5337,-15.93724 5.4994,-7.95967 10.408,-14.72495 10.9079,-15.03396 0.5,-0.30901 2.1031,0.2205 3.5624,1.17668 l 2.6533,1.73852 -0.714,16.30304 c -0.4364,9.96543 -0.3502,16.30305 0.2218,16.30305 0.5147,0 4.1984,-4.74959 8.1859,-10.55465 7.2087,-10.49443 10.2288,-12.71553 10.7896,-7.93513 0.23,1.96029 -18.3148,29.54119 -20.2685,30.14446 -0.5307,0.16388 -2.0428,-0.53013 -3.3602,-1.54223 z m 144.2881,-4.71472 c -2.0827,-4.98472 -1.5242,-7.89773 1.5143,-7.89773 1.9098,0 2.7171,0.85033 3.9081,4.11682 1.747,4.7916 1.103,7.38318 -1.8348,7.38318 -1.446,0 -2.5425,-1.101 -3.5876,-3.60227 z M 355.19711,469.01219 C 349.8637,460.84467 345.5,453.71553 345.5,453.16966 c 0,-0.54588 1.51328,-1.80746 3.36284,-2.80352 l 3.36285,-1.81101 11.24723,8.65354 c 6.18598,4.75945 11.6477,8.65354 12.13716,8.65354 1.38645,0 1.1545,-1.57952 -2.32819,-15.85427 l -3.25812,-13.35427 2.98812,-2.39076 c 1.64346,-1.31492 3.33291,-2.393 3.75434,-2.39573 1.32936,-0.009 20.56149,30.28041 20.05866,31.59075 -0.61348,1.59872 -2.70842,2.40981 -4.03382,1.56176 -0.56516,-0.36161 -4.10102,-5.38248 -7.85747,-11.15748 -4.1141,-6.32484 -6.96838,-9.85971 -7.17816,-8.88976 -0.19154,0.88563 1.02596,7.3605 2.70557,14.3886 3.13287,13.10916 3.02127,15.50116 -0.72321,15.50116 -0.83452,0 -5.92307,-3.37709 -11.30788,-7.50465 -5.38481,-4.12755 -10.54927,-7.79579 -11.47658,-8.15163 -1.49261,-0.57277 -1.54001,-0.37149 -0.41322,1.75465 0.70003,1.3209 3.93345,6.36808 7.18538,11.21596 4.77606,7.12001 5.68357,9.09031 4.72111,10.25 -0.65533,0.78962 -1.7227,1.43567 -2.37194,1.43567 -0.64924,0 -5.54414,-6.68251 -10.87756,-14.85002 z m -130.64776,0.40948 c -0.94381,-1.13722 -0.7641,-2.41589 0.85348,-6.0727 1.6787,-3.79498 2.46003,-4.57385 4.3231,-4.30947 3.04881,0.43265 3.41825,4.34573 0.80936,8.57271 -2.16513,3.50799 -4.09271,4.09067 -5.98594,1.80946 z m 780.05815,-7.50942 c -10.5801,-6.46552 -10.5342,-4.82457 -0.6001,-21.42042 4.7999,-8.01863 9.2964,-15.05179 9.9921,-15.62923 1.5661,-1.29973 16.8261,7.8244 17.3244,10.35845 0.58,2.94976 -2.4876,2.82958 -7.5682,-0.2965 -2.7373,-1.68429 -5.459,-3.06234 -6.0482,-3.06234 -1.3876,0 -5.2075,5.36166 -5.2075,7.30935 0,0.82533 2.1375,2.74191 4.75,4.25906 5.7142,3.31838 6.612,4.49711 4.8035,6.30626 -1.1658,1.16617 -2.1972,0.90382 -6.8003,-1.72983 -4.4175,-2.52739 -5.7019,-2.87587 -6.9096,-1.87466 -1.8446,1.52918 -4.8436,6.3011 -4.8436,7.70706 0,0.57618 2.502,2.64812 5.56,4.6043 3.6927,2.3622 5.4521,4.11736 5.2385,5.2261 -0.5358,2.78239 -2.9902,2.33726 -9.691,-1.7576 z m -602.49791,-5.74256 c -0.31601,-1.54411 -1.73195,-10.2206 -3.14653,-19.28108 -2.46439,-15.78461 -2.4968,-16.52856 -0.77477,-17.78774 0.98846,-0.72278 2.64152,-1.18466 3.67348,-1.0264 2.76809,0.4245 29.51649,23.00291 29.58211,24.97035 0.10702,3.20872 -3.71446,3.15211 -7.67647,-0.11372 -2.0477,-1.68789 -4.32794,-3.06889 -5.06718,-3.06889 -1.09435,0 -9.29268,4.2162 -11.19757,5.75864 -0.27353,0.22149 -0.49853,3.1789 -0.5,6.57203 -0.002,5.55718 -0.21678,6.19984 -2.16058,6.47681 -1.66992,0.23795 -2.28785,-0.3274 -2.73249,-2.5 z m 7.85648,-17.99269 c 1.95063,-0.93019 3.48834,-2.38628 3.43218,-3.25 -0.11652,-1.79206 -9.62796,-10.66842 -10.49868,-9.79769 -0.50311,0.5031 1.00415,10.05256 2.1281,13.4829 0.52358,1.598 0.70897,1.58166 4.9384,-0.43521 z m 763.62533,15.07427 c -1.1742,-1.49271 -2.3924,-3.74033 -2.7073,-4.99471 -1.3485,-5.3728 3.4402,-6.03274 6.606,-0.91038 3.9407,6.37612 0.5324,11.53834 -3.8987,5.90509 z M 982.75,449.19993 c -1.9577,-0.78993 -1.4605,-3.39009 1.7681,-9.24749 1.6401,-2.97537 2.9819,-6.00721 2.9819,-6.73743 0,-1.63796 -13.2546,-8.45248 -14.6346,-7.52398 -0.5486,0.36915 -2.4578,3.24917 -4.2427,6.40005 -1.7849,3.15088 -3.6271,5.96484 -4.0938,6.25324 -1.396,0.86283 -4.0289,-0.58438 -4.0289,-2.21459 0,-2.04808 15.906,-32.26752 16.984,-32.26752 1.9992,0 4.016,1.31685 4.016,2.62214 0,0.77449 -1.3314,3.76733 -2.9587,6.65075 -1.6273,2.88343 -2.6398,5.74079 -2.25,6.34968 1.0377,1.62101 11.5911,7.37743 13.5252,7.37743 1.0192,0 2.8179,-2.3042 4.6835,-6 1.6658,-3.3 3.4355,-6 3.9326,-6 2.0299,0 4.0674,1.29807 4.0674,2.5913 0,2.36838 -16.1115,32.41293 -17.3369,32.32975 -0.6397,-0.0434 -1.7256,-0.30592 -2.4131,-0.58333 z m -741.58333,-8.00439 c -2.31372,-2.31371 3.16256,-10.64236 6.66761,-10.1405 3.12695,0.44773 3.20641,3.40951 0.1973,7.35466 -2.44776,3.20917 -5.2887,4.36205 -6.86491,2.78584 z M 430.00514,424.20881 C 425.87731,415.59944 422.5,408.04602 422.5,407.42344 c 0,-1.55142 12.08977,-7.39204 16.88998,-8.15963 10.31193,-1.64894 20.11002,8.22718 20.11002,20.27018 0,5.36158 -1.84044,9.17163 -6.21408,12.86427 -3.37738,2.85151 -12.3157,7.4368 -14.53078,7.45418 -0.68467,0.005 -4.62217,-7.03426 -8.75,-15.64363 z M 446.5,430.76482 c 4.9919,-2.98074 6.95228,-5.84704 6.97776,-10.20227 0.0253,-4.33001 -2.03635,-8.9501 -5.77901,-12.95034 -2.04579,-2.18658 -3.46674,-2.75 -6.9355,-2.75 -5.45293,0 -10.26325,2.36487 -10.26325,5.04566 0,1.89057 8.08978,19.04322 10.23651,21.70434 1.33093,1.64984 1.66316,1.60099 5.76349,-0.84739 z m 496.4591,-1.26948 c -5.8482,-2.72329 -10.394,-7.63329 -10.6099,-11.45986 -0.5785,-10.25552 4.0642,-19.97687 11.3511,-23.76828 4.1586,-2.16368 11.8074,-1.76337 16.8052,0.87951 5.6575,2.99176 7.0224,5.11618 4.7482,7.39041 -1.6166,1.61659 -1.8396,1.59665 -3.9831,-0.35627 -7.7678,-7.07709 -16.2944,-4.9792 -20.8909,5.13999 -3.9886,8.78085 -0.9967,16.29358 7.444,18.69189 5.3691,1.52554 6.3078,2.38368 4.7115,4.3071 -1.7405,2.09709 -3.6562,1.93214 -9.5761,-0.82449 z m 209.1356,-3.53426 c -1.5477,-1.61545 -2.6232,-3.72048 -2.4268,-4.75 0.6052,-3.17357 4.1097,-2.68946 7.7547,1.07125 2.8539,2.94454 3.188,3.74172 2.1114,5.0389 -1.9199,2.31338 -4.3445,1.87008 -7.4393,-1.36015 z m -678.3331,-2.98004 c -1.36284,-0.90494 -14.12691,-32.30922 -13.63984,-33.55899 0.42408,-1.08814 15.96895,-7.63115 18.02125,-7.58535 1.71208,0.0382 2.41381,2.73346 1.01413,3.8951 -0.67319,0.5587 -3.356,1.9297 -5.9618,3.04668 -2.60581,1.11698 -4.98582,2.67714 -5.28894,3.46704 -0.53736,1.40035 1.82143,7.02143 3.34035,7.96017 0.41853,0.25867 3.32484,-0.57278 6.45845,-1.84768 4.75971,-1.93646 5.88426,-2.09294 6.83223,-0.9507 1.65128,1.98967 0.44267,3.2678 -5.62937,5.95314 -3.28372,1.45222 -5.40806,3.01818 -5.40806,3.98657 0,1.54736 3.68103,9.51519 4.39589,9.51519 0.19539,0 2.9514,-1.14814 6.12448,-2.55143 6.1651,-2.7265 8.47963,-2.63266 8.47963,0.3438 0,1.40249 -2.17236,2.72013 -8.90322,5.40022 -4.89678,1.94978 -9.32261,3.26659 -9.83518,2.92624 z m -209.90486,-6.63156 c -0.72001,-1.87633 0.85665,-3.838 5.28391,-6.5742 2.74712,-1.69781 3.70395,-1.87197 4.88759,-0.88964 2.27988,1.89214 1.76791,3.6489 -1.87263,6.42568 -3.74815,2.85885 -7.42376,3.31866 -8.29887,1.03816 z m 644.68776,-1.93364 c -1.0557,-1.27201 -0.3759,-3.90281 4.0041,-15.49513 5.7567,-15.23632 5.7456,-16.28588 -0.1853,-17.58852 -3.3905,-0.74468 -4.6435,-2.82502 -2.9387,-4.87917 0.9587,-1.15517 3.1658,-0.61311 13.3619,3.28172 9.9377,3.79613 12.2135,5.03458 12.2135,6.64646 0,2.09629 -1.5903,2.27858 -8.1349,0.93255 l -3.135,-0.64476 -3.7727,9.84661 c -2.0749,5.41563 -4.5478,11.87161 -5.4951,14.34661 -1.8424,4.81327 -3.8646,6.0276 -5.9178,3.55363 z m 216.9157,-7.80146 c -6.9026,-4.65165 -2.5275,-9.12002 4.6103,-4.70861 2.5495,1.57568 3.4533,2.7835 3.234,4.32165 -0.4279,3.00013 -3.7252,3.16279 -7.8443,0.38696 z m -611.49065,-0.002 C 511.17772,399.15031 503.5,375.04317 503.5,373.73904 c 0,-1.25002 2.41097,-2.50674 9.13627,-4.76229 5.02494,-1.68528 9.52494,-2.82392 10,-2.53032 0.47505,0.2936 0.86373,1.37109 0.86373,2.39443 0,1.36224 -1.40623,2.31548 -5.25,3.5588 -7.53685,2.43791 -8.18883,3.26581 -6.64081,8.43265 0.69837,2.33095 1.91315,4.48498 2.69952,4.78674 0.78637,0.30175 3.73052,-0.1871 6.54255,-1.08636 4.35833,-1.39374 5.31736,-1.43044 6.49909,-0.2487 1.87799,1.87799 0.83922,3.20487 -3.61428,4.61671 -2.05484,0.65143 -4.70669,1.79219 -5.89301,2.53504 l -2.15694,1.35063 1.92017,6.16952 c 1.4544,4.673 1.64469,6.50144 0.78449,7.53792 -1.41929,1.71015 -3.80181,1.77395 -4.42123,0.1184 z m 372.59415,-0.1732 c -1.0276,-1.23824 -0.3168,-4.3409 3.9617,-17.29289 2.8677,-8.68115 5.7552,-16.36294 6.4167,-17.07065 1.5284,-1.63503 4.5579,-0.52669 4.5579,1.66748 0,0.91672 -2.4015,8.85607 -5.3367,17.64301 -5.3519,16.02175 -6.8482,18.3682 -9.5996,15.05305 z m -12.024,-3.53107 c -0.8031,-0.50801 -2.8861,-4.88862 -4.6289,-9.73469 -2.4268,-6.74784 -3.6411,-8.88267 -5.1857,-9.11695 -1.6075,-0.24381 -2.3621,0.66979 -3.717,4.5 -2.9867,8.44305 -3.4378,9.30591 -4.8642,9.30591 -3.5893,0 -3.7035,-2.53794 -0.5898,-13.10707 1.6839,-5.71611 3.9547,-13.43043 5.0461,-17.14293 1.476,-5.02042 2.4349,-6.75 3.7421,-6.75 3.6004,0 3.9768,1.83193 1.8644,9.07333 -1.1138,3.81793 -1.7329,7.23384 -1.3758,7.5909 0.3571,0.35707 4.4743,-1.89631 9.1493,-5.00751 8.2028,-5.45885 13.5198,-7.15128 13.5198,-4.30344 0,0.74431 -3.1708,3.46173 -7.0462,6.03872 -3.8755,2.57699 -7.2942,5.33149 -7.5972,6.12111 -0.303,0.78962 1.0245,6.14046 2.9501,11.89075 1.9256,5.75029 3.2443,10.71182 2.9305,11.02561 -0.8291,0.82909 -2.5251,0.67404 -4.1975,-0.38374 z m -581.02913,-2.533 c -1.70624,-2.05589 -0.67765,-4.11641 3.00567,-6.02113 4.14206,-2.14194 7.39522,-1.61511 7.80402,1.26382 0.26242,1.84809 -0.5201,2.61564 -4.3329,4.25 -5.55169,2.37973 -4.96121,2.33348 -6.47679,0.50731 z m 247.5019,-2.76273 C 539.64339,393.58329 532.5,365.80612 532.5,364.51137 c 0,-1.90803 5.24859,-3.57132 13.72022,-4.34796 7.75037,-0.71052 10.72353,0.91932 12.29013,6.73725 0.94876,3.5234 0.79887,4.6245 -1.16473,8.55621 l -2.25361,4.51241 6.204,5.52635 c 3.41219,3.03949 6.20399,5.93182 6.20399,6.42741 0,0.49559 -1.16583,1.19367 -2.59074,1.5513 -2.21889,0.55691 -3.48728,-0.23835 -8.83732,-5.54083 -5.42852,-5.38027 -6.59654,-6.10323 -8.91871,-5.5204 -1.46967,0.36886 -2.87822,1.00412 -3.1301,1.41168 -0.25189,0.40756 0.25887,3.26092 1.13502,6.3408 0.87614,3.07987 1.32561,6.29656 0.99881,7.1482 -0.71026,1.85089 -4.54143,2.07313 -5.14449,0.29842 z m 7.20047,-20.79978 c 6.86876,-2.39446 6.1766,-11.16707 -0.92771,-11.75806 -2.03531,-0.16931 -4.66242,0.20693 -5.83803,0.8361 -1.81245,0.96999 -2.03348,1.69828 -1.45358,4.78943 1.34516,7.17031 2.58619,8.09626 8.21932,6.13253 z m 546.47136,16.46081 c -2.5311,-1.12244 -3.2409,-1.99573 -3,-3.69069 0.4028,-2.83279 3.4638,-3.31206 8.2857,-1.29732 2.9155,1.21817 3.608,2.00442 3.3523,3.80615 -0.3986,2.80871 -3.8917,3.28664 -8.638,1.18186 z m -519.89292,-3.66103 c -1.80373,-2.36459 -7.67342,-33.76796 -6.52611,-34.91527 1.49518,-1.49518 17.83238,-4.70143 19.30819,-3.78933 0.66989,0.41401 0.95058,1.44958 0.62375,2.30126 -0.5409,1.40957 -2.69183,2.20674 -11.07212,4.10346 -2.71259,0.61395 -2.84408,0.88052 -2.32891,4.72137 0.77161,5.75279 1.54863,6.21012 8.20382,4.82851 3.90529,-0.81073 6.03852,-0.86148 6.73969,-0.16031 1.88996,1.88996 -0.0613,3.9545 -4.42006,4.67678 -7.20092,1.19324 -8.07136,2.00549 -7.29672,6.80894 0.98782,6.12533 1.86955,6.63363 9.29361,5.35754 5.27495,-0.90668 6.46449,-0.84638 7.21384,0.36567 1.4044,2.27157 -0.76806,3.47501 -9.55321,5.29203 -9.59324,1.98415 -9.0026,1.96042 -10.18577,0.40935 z m -250.30759,-1.26954 c -2.03394,-2.45074 -0.0553,-4.81275 4.92989,-5.88512 3.34824,-0.72024 4.52332,-0.58691 5.76427,0.65404 1.85101,1.85101 1.04231,3.52628 -2.31919,4.80432 -5.23515,1.9904 -7.00253,2.08046 -8.37497,0.42676 z m 491.59114,-0.35922 c -0.33758,-0.54622 -0.16605,-2.93446 0.38119,-5.30719 1.57669,-6.83621 1.21248,-10.66783 -1.97378,-20.76469 -1.64029,-5.19785 -2.98234,-10.26035 -2.98234,-11.25 0,-3.66993 5.4398,-1.20306 6.44843,2.92426 2.2353,9.14695 3.84379,13.36097 4.99372,13.08288 0.69707,-0.16858 3.62102,-3.14528 6.49768,-6.6149 3.83123,-4.62096 5.78844,-6.22591 7.3169,-6 1.14764,0.16962 2.25136,0.8094 2.45272,1.42173 0.20136,0.61233 -3.08253,5.24654 -7.29753,10.29824 -6.68878,8.01656 -7.87022,10.03741 -9.28777,15.88667 -1.328,5.47974 -2.01722,6.75777 -3.77979,7.00895 -1.1856,0.16895 -2.43185,-0.13973 -2.76943,-0.68595 z M 601.7,383.66221 c -2.73418,-2.73418 -1.31004,-3.8 5.07749,-3.8 7.17345,0 10.72251,-1.81558 10.72251,-5.48528 0,-3.37874 -1.89746,-4.86424 -8.93485,-6.99499 C 601.2706,365.17332 597.5,361.43801 597.5,356.42034 c 0,-6.75105 6.01689,-10.88253 15.09615,-10.36573 4.73151,0.26933 5.44361,0.58754 5.7234,2.5576 0.2972,2.09265 -0.0544,2.25 -5.02749,2.25 -6.1793,0 -9.79206,2.00496 -9.79206,5.43426 0,3.05337 1.35531,4.04514 8.26162,6.04555 8.15859,2.36315 11.73838,5.61859 11.73838,10.67483 0,5.43779 -1.43664,7.68634 -6.33068,9.90841 -4.69409,2.13129 -13.6484,2.55787 -15.46932,0.73695 z m 462.3,0.49728 c -2.9427,-0.75407 -4.5,-2.29442 -4.5,-4.45111 0,-2.67255 1.7896,-3.07191 7,-1.56214 3.7579,1.08889 4.5,1.70894 4.5,3.75994 0,1.91179 -0.554,2.49035 -2.5,2.61092 -1.375,0.0852 -3.4,-0.0757 -4.5,-0.35761 z m -271.48056,-3.04728 c 0.0107,-1.5125 0.65901,-7.25 1.4407,-12.75 0.81589,-5.74056 1.04746,-10.37776 0.54368,-10.88688 -0.50612,-0.51148 -3.54987,4.48057 -7.1907,11.79345 -6.10356,12.25944 -6.4114,12.67061 -9.27407,12.38689 -2.58009,-0.25571 -3.06279,-0.80798 -3.75265,-4.29346 -3.2272,-16.30531 -5.14649,-24.5 -5.73818,-24.5 -0.38009,0 -1.44139,5.70996 -2.35845,12.68881 -0.91707,6.97885 -2.09218,13.1136 -2.61136,13.63278 -0.51919,0.51919 -1.64922,0.67335 -2.51119,0.34258 -2.03553,-0.78111 -1.93895,-3.61891 0.75435,-22.16417 l 2.17843,-15 3.5,0.33145 c 1.925,0.18229 3.89003,0.70732 4.36673,1.16673 0.4767,0.4594 1.94664,6.16025 3.26654,12.66855 2.95164,14.55436 3.25558,15.53699 4.66084,15.06857 0.61841,-0.20614 4.07633,-5.96841 7.68426,-12.80505 l 6.55988,-12.43025 3.48088,0.33145 c 1.91448,0.18229 3.79429,0.63229 4.17737,1 0.60294,0.57875 -2.38526,27.62403 -3.74762,33.91855 -0.34584,1.59787 -1.20605,2.25 -2.96793,2.25 -2.04454,0 -2.47753,-0.48374 -2.46151,-2.75 z m -436.63645,-1.69432 c -0.86856,-2.26345 1.21691,-4.13771 6.05059,-5.43783 4.10074,-1.10298 6.56642,-0.20848 6.56642,2.38215 0,2.08254 -2.4488,3.46271 -7.33115,4.13191 -3.81714,0.5232 -4.74456,0.33437 -5.28586,-1.07623 z m 277.16972,0.26446 c -1.08722,-3.27428 -3.43034,-35.34251 -2.6401,-36.13275 0.48122,-0.48122 1.71025,-0.71717 2.73117,-0.52432 1.4405,0.2721 2.04666,1.69287 2.70654,6.34378 0.46767,3.29623 1.01605,6.55565 1.21861,7.24315 0.4075,1.38306 6.4665,1.57781 12.93107,0.41564 l 4,-0.71911 0,-7.44638 c 0,-6.45433 0.2473,-7.49577 1.85622,-7.81705 1.02092,-0.20386 2.22782,0.009 2.68199,0.47312 1.32031,1.3491 4.24372,35.46185 3.13413,36.57144 -0.52795,0.52795 -1.7952,0.80093 -2.81612,0.60663 -1.51623,-0.28857 -2.04188,-1.81683 -2.86987,-8.34378 l -1.01365,-7.99051 -7.48635,0.33194 c -4.11749,0.18257 -7.93635,0.77209 -8.48635,1.31004 -0.55,0.53795 -1,4.43858 -1,8.66806 0,7.21796 -0.13838,7.70961 -2.25447,8.0101 -1.23996,0.17607 -2.45173,-0.27393 -2.69282,-1 z m 93.77649,-3.01907 c -0.55025,-0.71559 -4.27628,-7.03308 -8.28006,-14.03887 -4.00378,-7.00579 -7.61322,-12.53161 -8.02098,-12.27961 -0.40775,0.25201 -1.06085,5.98402 -1.45132,12.7378 -0.39048,6.75379 -1.09976,12.67686 -1.57618,13.16239 -0.47642,0.48553 -1.57147,0.61216 -2.43344,0.28139 -1.31376,-0.50414 -1.54967,-2.58759 -1.45869,-12.88279 0.0597,-6.75476 0.3972,-14.98138 0.75,-18.28138 l 0.64147,-6 3.35556,0 c 3.25327,0 3.59499,0.41111 11.21034,13.48678 4.32013,7.41773 8.25602,13.62053 8.74643,13.784 0.4904,0.16346 1.20943,-5.45559 1.59783,-12.48678 0.38841,-7.0312 1.09977,-13.18125 1.5808,-13.66678 0.48103,-0.48553 1.57985,-0.61216 2.44182,-0.28139 1.32045,0.50671 1.55343,2.69266 1.47961,13.88279 -0.0482,7.30476 -0.38568,15.53138 -0.75,18.28138 -0.62076,4.68576 -0.85628,5.01892 -3.74756,5.30107 -1.69685,0.16558 -3.53538,-0.28442 -4.08563,-1 z M 1031,376.5147 c -3.2575,-0.99075 -4,-1.67467 -4,-3.68453 0,-2.31104 0.3108,-2.45691 4.888,-2.29422 5.7516,0.20442 8.7095,2.36113 6.9879,5.09502 -1.3945,2.21437 -2.9332,2.38702 -7.8759,0.88373 z m -344.02962,-0.86907 c -0.28637,-0.74627 -0.39686,-8.99034 -0.24553,-18.32014 L 687,340.36221 l 2.5,0 2.5,0 0,18 c 0,17.91591 -0.0105,18.0015 -2.25447,18.32014 -1.23996,0.17607 -2.48878,-0.29045 -2.77515,-1.03672 z M 389.25,373.29102 c -1.61483,-1.64098 -0.65897,-4.51292 1.8151,-5.45356 6.06632,-2.30641 12.67103,0.2172 9.32515,3.56307 -1.63053,1.63054 -9.99863,3.05059 -11.14025,1.89049 z m 608.453,-3.53847 c -6.4143,-1.89078 -4.9169,-7.46809 1.6855,-6.27805 5.4324,0.97916 7.2744,2.23129 6.9222,4.70537 -0.3601,2.52906 -3.4489,3.0934 -8.6077,1.57268 z m -576.24465,-4.44053 c -2.04506,-2.46414 0.89037,-4.57123 6.65363,-4.77607 4.36902,-0.15529 4.92193,0.065 5.20736,2.07465 0.23601,1.66171 -0.36807,2.50974 -2.3151,3.25 -3.85588,1.466 -8.07517,1.22353 -9.54589,-0.54858 z M 966,362.5147 c -3.2575,-0.99075 -4,-1.67467 -4,-3.68453 0,-2.27478 0.3393,-2.45248 4.3345,-2.27024 5.0641,0.231 7.3813,1.79645 6.9638,4.70456 -0.3648,2.54053 -2.0862,2.83542 -7.2983,1.25021 z m -511.56957,-4.23631 c -1.84605,-2.22436 -0.18863,-4.45243 4.52641,-6.08481 4.40215,-1.52406 6.8459,-0.37717 6.34142,2.97614 -0.2082,1.38389 -1.65704,2.38707 -4.79826,3.32232 -2.475,0.73689 -4.5574,1.34664 -4.62756,1.35499 -0.0702,0.008 -0.71906,-0.69754 -1.44201,-1.56864 z M 933.75,352.88914 c -3.0198,-1.37072 -4.25,-2.53132 -4.25,-4.00942 0,-2.90086 2.2131,-3.44639 7.217,-1.77897 4.4855,1.49467 5.8418,3.78082 3.7431,6.3095 -1.5087,1.81794 -1.567,1.81342 -6.7101,-0.52111 z M 485.7,347.66221 c -2.08799,-2.08799 -1.31875,-3.69877 2.76016,-5.77968 4.72871,-2.4124 6.38082,-2.51932 8.03984,-0.52032 1.62692,1.96032 -0.0456,4.07438 -4.79252,6.05778 -4.18326,1.74787 -4.48948,1.76022 -6.00748,0.24222 z m 417.05,-8.76471 c -3.4286,-2.1161 -4.3792,-5.66474 -1.7843,-6.66051 2.3169,-0.88907 10.0343,3.83687 10.0343,6.14473 0,2.77097 -4.1734,3.03189 -8.25,0.51578 z M 515.7,332.66221 c -2.04608,-2.04608 -1.34904,-3.67299 2.73028,-6.37256 4.71856,-3.12259 7.56972,-2.91376 7.56972,0.55444 0,1.81934 -1.03508,3.0407 -4,4.71985 -4.682,2.65161 -4.73706,2.66121 -6.3,1.09827 z m 358.4913,-10.34926 c -3.9159,-2.67587 -4.4624,-4.93605 -1.6254,-6.72232 2.4354,-1.5334 10.1591,3.67585 9.7468,6.57372 -0.4471,3.14273 -3.6539,3.2014 -8.1214,0.1486 z M 543.5,314.36221 c -1.53026,-1.84385 -0.37068,-3.48975 4.64065,-6.58693 2.74712,-1.69781 3.70395,-1.87197 4.88759,-0.88964 2.27988,1.89214 1.76791,3.6489 -1.87263,6.42568 -3.82073,2.91421 -5.87514,3.19622 -7.65561,1.05089 z m 302.67261,-10.0765 c -2.74629,-1.86615 -3.70633,-3.17292 -3.48214,-4.73978 0.44872,-3.13607 3.38336,-3.23152 7.87923,-0.25628 4.0793,2.69957 4.7764,4.32648 2.7303,6.37256 -1.7326,1.73259 -2.8773,1.51151 -7.12739,-1.3765 z M 571.7,296.66221 c -2.04608,-2.04608 -1.34904,-3.67299 2.73028,-6.37256 4.49589,-2.97524 7.43053,-2.87979 7.87925,0.25628 0.22419,1.56686 -0.73585,2.87363 -3.48214,4.73978 -4.25008,2.88801 -5.3948,3.10909 -7.12739,1.3765 z M 820,287.0203 c -4.0262,-2.46131 -5.84637,-4.81307 -5.14326,-6.64536 0.92492,-2.4103 4.92582,-1.76013 8.68103,1.41072 2.84935,2.40595 3.27256,3.23625 2.39079,4.69048 -1.53033,2.52382 -2.53883,2.61639 -5.92856,0.54416 z m -220.60855,-8.78888 c -1.18128,-1.42336 -0.85158,-2.0646 2.5921,-5.04144 4.40874,-3.81105 7.83805,-4.08053 8.32598,-0.65427 0.22476,1.5783 -0.72881,2.87906 -3.48214,4.75 -4.42985,3.01016 -5.59917,3.15888 -7.43594,0.94571 z m 189.84068,-9.90526 c -4.11166,-2.79395 -4.45231,-3.62136 -2.24512,-5.45317 1.92915,-1.60105 5.68528,-0.62682 9.18303,2.38182 2.38132,2.04833 2.57904,2.60235 1.42502,3.99286 -1.87332,2.25721 -4.03566,2.01894 -8.36293,-0.92151 z M 628.5,261.36221 c -1.63997,-1.97605 -0.25502,-3.63032 5.03726,-6.0168 3.73331,-1.68349 4.17507,-1.69944 5.66985,-0.20466 1.36862,1.36862 1.4122,1.87277 0.27982,3.23721 -1.60939,1.93919 -6.3285,4.48425 -8.31483,4.48425 -0.78496,0 -1.98741,-0.675 -2.6721,-1.5 z m 131.25,-7.46471 c -3.34877,-2.06685 -4.39556,-5.65847 -1.92544,-6.60634 0.72851,-0.27955 3.46012,0.40713 6.07026,1.52596 3.89935,1.67146 4.68859,2.43648 4.42544,4.28967 -0.4302,3.02968 -4.35581,3.39187 -8.57026,0.79071 z m -100.88837,-5.53529 c -1.02615,-2.6741 0.44734,-4.37147 4.81613,-5.54786 7.31422,-1.96952 10.24301,2.08877 3.82224,5.29631 -4.29568,2.14593 -7.87147,2.25006 -8.63837,0.25155 z M 726.75,243.85507 c -2.59346,-1.07013 -3.04334,-4.7512 -0.69099,-5.65388 0.85746,-0.32903 3.44496,-0.2004 5.75,0.28586 3.56553,0.75216 4.19099,1.25653 4.19099,3.37963 0,2.14525 -0.49128,2.5251 -3.5,2.70617 -1.925,0.11585 -4.5125,-0.20715 -5.75,-0.71778 z m -35.05,-2.19286 c -3.18153,-3.18153 0.4892,-6.08449 7.08821,-5.60563 3.72228,0.27011 4.21179,0.59095 4.21179,2.76055 0,1.76646 -0.70109,2.64993 -2.5,3.15032 -3.99542,1.11137 -7.50513,0.98963 -8.8,-0.30524 z"
       style="fill:#ffffff" />
  </g>
</svg>
